Roman_opsz10.ufo
<glyph name="exclam" format="2">
  <advance width="277"/>
  <unicode hex="0021"/>
  <outline>
    <contour>
      <point x="153" y="209" type="curve" smooth="yes"/>
      <point x="192" y="665" type="line"/>
      <point x="192" y="698"/>
      <point x="165" y="716"/>
      <point x="139" y="716" type="curve" smooth="yes"/>
      <point x="113" y="716"/>
      <point x="86" y="698"/>
      <point x="86" y="665" type="curve"/>
      <point x="125" y="210" type="line" smooth="yes"/>
      <point x="126" y="195"/>
      <point x="127" y="187"/>
      <point x="139" y="187" type="curve" smooth="yes"/>
      <point x="149" y="187"/>
      <point x="152" y="192"/>
    </contour>
    <contour>
      <point x="192" y="53" type="curve" smooth="yes"/>
      <point x="192" y="82"/>
      <point x="168" y="106"/>
      <point x="139" y="106" type="curve" smooth="yes"/>
      <point x="110" y="106"/>
      <point x="86" y="82"/>
      <point x="86" y="53" type="curve" smooth="yes"/>
      <point x="86" y="24"/>
      <point x="110" y="0"/>
      <point x="139" y="0" type="curve" smooth="yes"/>
      <point x="168" y="0"/>
      <point x="192" y="24"/>
    </contour>
  </outline>
</glyph>
<glyph name="percent" format="2">
  <advance width="833"/>
  <unicode hex="0025"/>
  <outline>
    <contour>
      <point x="685" y="712" type="line" smooth="yes"/>
      <point x="691" y="721"/>
      <point x="693" y="724"/>
      <point x="693" y="730" type="curve" smooth="yes"/>
      <point x="693" y="741"/>
      <point x="684" y="750"/>
      <point x="673" y="750" type="curve" smooth="yes"/>
      <point x="663" y="750"/>
      <point x="658" y="743"/>
      <point x="652" y="736" type="curve"/>
      <point x="602" y="668"/>
      <point x="535" y="641"/>
      <point x="462" y="641" type="curve" smooth="yes"/>
      <point x="392" y="641"/>
      <point x="330" y="666"/>
      <point x="275" y="718" type="curve" smooth="yes"/>
      <point x="256" y="735"/>
      <point x="235" y="750"/>
      <point x="203" y="750" type="curve" smooth="yes"/>
      <point x="127" y="750"/>
      <point x="56" y="666"/>
      <point x="56" y="549" type="curve" smooth="yes"/>
      <point x="56" y="428"/>
      <point x="128" y="347"/>
      <point x="203" y="347" type="curve" smooth="yes"/>
      <point x="276" y="347"/>
      <point x="333" y="436"/>
      <point x="333" y="548" type="curve" smooth="yes"/>
      <point x="333" y="562"/>
      <point x="333" y="609"/>
      <point x="312" y="661" type="curve"/>
      <point x="377" y="624"/>
      <point x="427" y="619"/>
      <point x="463" y="619" type="curve" smooth="yes"/>
      <point x="539" y="619"/>
      <point x="590" y="650"/>
      <point x="596" y="654" type="curve"/>
      <point x="597" y="653" type="line"/>
      <point x="148" y="-16" type="line" smooth="yes"/>
      <point x="139" y="-29"/>
      <point x="139" y="-34"/>
      <point x="139" y="-36" type="curve" smooth="yes"/>
      <point x="139" y="-47"/>
      <point x="149" y="-56"/>
      <point x="159" y="-56" type="curve" smooth="yes"/>
      <point x="169" y="-56"/>
      <point x="171" y="-52"/>
      <point x="179" y="-41" type="curve" smooth="yes"/>
    </contour>
    <contour>
      <point x="204" y="369" type="curve" smooth="yes"/>
      <point x="184" y="369"/>
      <point x="118" y="382"/>
      <point x="118" y="548" type="curve" smooth="yes"/>
      <point x="118" y="715"/>
      <point x="183" y="728"/>
      <point x="204" y="728" type="curve" smooth="yes"/>
      <point x="257" y="728"/>
      <point x="308" y="654"/>
      <point x="308" y="549" type="curve" smooth="yes"/>
      <point x="308" y="441"/>
      <point x="256" y="369"/>
    </contour>
    <contour>
      <point x="647" y="-34" type="curve" smooth="yes"/>
      <point x="627" y="-34"/>
      <point x="561" y="-21"/>
      <point x="561" y="145" type="curve" smooth="yes"/>
      <point x="561" y="312"/>
      <point x="626" y="325"/>
      <point x="647" y="325" type="curve" smooth="yes"/>
      <point x="700" y="325"/>
      <point x="751" y="251"/>
      <point x="751" y="146" type="curve" smooth="yes"/>
      <point x="751" y="38"/>
      <point x="699" y="-34"/>
    </contour>
    <contour>
      <point x="776" y="145" type="curve" smooth="yes"/>
      <point x="776" y="260"/>
      <point x="717" y="347"/>
      <point x="646" y="347" type="curve" smooth="yes"/>
      <point x="570" y="347"/>
      <point x="499" y="263"/>
      <point x="499" y="146" type="curve" smooth="yes"/>
      <point x="499" y="25"/>
      <point x="571" y="-56"/>
      <point x="646" y="-56" type="curve" smooth="yes"/>
      <point x="719" y="-56"/>
      <point x="776" y="33"/>
    </contour>
  </outline>
</glyph>
<glyph name="asterisk" format="2">
  <advance width="500"/>
  <unicode hex="002A"/>
  <outline>
    <contour>
      <point x="249" y="319" type="curve" smooth="yes"/>
      <point x="265" y="319"/>
      <point x="276" y="331"/>
      <point x="276" y="344" type="curve"/>
      <point x="261" y="514" type="line"/>
      <point x="391" y="419" type="line"/>
      <point x="396" y="416"/>
      <point x="399" y="413"/>
      <point x="407" y="413" type="curve" smooth="yes"/>
      <point x="423" y="413"/>
      <point x="434" y="428"/>
      <point x="434" y="441" type="curve" smooth="yes"/>
      <point x="434" y="452"/>
      <point x="430" y="460"/>
      <point x="413" y="468" type="curve" smooth="yes"/>
      <point x="272" y="534" type="line"/>
      <point x="411" y="600" type="line" smooth="yes"/>
      <point x="430" y="609"/>
      <point x="434" y="616"/>
      <point x="434" y="628" type="curve" smooth="yes"/>
      <point x="434" y="641"/>
      <point x="423" y="656"/>
      <point x="407" y="656" type="curve" smooth="yes"/>
      <point x="400" y="656"/>
      <point x="398" y="656"/>
      <point x="372" y="637" type="curve" smooth="yes"/>
      <point x="261" y="555" type="line"/>
      <point x="276" y="725" type="line"/>
      <point x="276" y="740"/>
      <point x="263" y="750"/>
      <point x="250" y="750" type="curve" smooth="yes"/>
      <point x="234" y="750"/>
      <point x="223" y="738"/>
      <point x="223" y="725" type="curve"/>
      <point x="238" y="555" type="line"/>
      <point x="114" y="645" type="line" smooth="yes"/>
      <point x="100" y="656"/>
      <point x="98" y="656"/>
      <point x="92" y="656" type="curve" smooth="yes"/>
      <point x="76" y="656"/>
      <point x="65" y="641"/>
      <point x="65" y="628" type="curve" smooth="yes"/>
      <point x="65" y="617"/>
      <point x="69" y="609"/>
      <point x="86" y="601" type="curve" smooth="yes"/>
      <point x="227" y="535" type="line"/>
      <point x="88" y="469" type="line" smooth="yes"/>
      <point x="69" y="460"/>
      <point x="65" y="453"/>
      <point x="65" y="441" type="curve" smooth="yes"/>
      <point x="65" y="439"/>
      <point x="65" y="413"/>
      <point x="98" y="413" type="curve"/>
      <point x="98" y="413"/>
      <point x="98" y="413"/>
      <point x="98" y="413" type="curve"/>
      <point x="238" y="514" type="line"/>
      <point x="223" y="344" type="line"/>
      <point x="223" y="329"/>
      <point x="236" y="319"/>
    </contour>
  </outline>
</glyph>
<glyph name="one" format="2">
  <advance width="500"/>
  <unicode hex="0031"/>
  <outline>
    <contour>
      <point x="95" y="0" type="line"/>
      <point x="130" y="3"/>
      <point x="217" y="3"/>
      <point x="257" y="3" type="curve" smooth="yes"/>
      <point x="297" y="3"/>
      <point x="384" y="3"/>
      <point x="419" y="0" type="curve"/>
      <point x="419" y="31" type="line"/>
      <point x="387" y="31" type="line" smooth="yes"/>
      <point x="297" y="31"/>
      <point x="294" y="42"/>
      <point x="294" y="79" type="curve" smooth="yes"/>
      <point x="294" y="640" type="line" smooth="yes"/>
      <point x="294" y="664"/>
      <point x="294" y="666"/>
      <point x="271" y="666" type="curve"/>
      <point x="209" y="602"/>
      <point x="121" y="602"/>
      <point x="89" y="602" type="curve" smooth="yes"/>
      <point x="89" y="602"/>
      <point x="89" y="602"/>
      <point x="89" y="602" type="curve"/>
      <point x="89" y="592"/>
      <point x="89" y="581"/>
      <point x="89" y="571" type="curve"/>
      <point x="109" y="571"/>
      <point x="168" y="571"/>
      <point x="220" y="597" type="curve"/>
      <point x="220" y="79" type="line" smooth="yes"/>
      <point x="220" y="43"/>
      <point x="217" y="31"/>
      <point x="127" y="31" type="curve" smooth="yes"/>
      <point x="95" y="31" type="line"/>
    </contour>
  </outline>
</glyph>
<glyph name="three" format="2">
  <advance width="500"/>
  <unicode hex="0033"/>
  <outline>
    <contour>
      <point x="244" y="-22" type="curve" smooth="yes"/>
      <point x="366" y="-22"/>
      <point x="457" y="69"/>
      <point x="457" y="171" type="curve" smooth="yes"/>
      <point x="457" y="253"/>
      <point x="394" y="331"/>
      <point x="290" y="352" type="curve"/>
      <point x="372" y="379"/>
      <point x="430" y="449"/>
      <point x="430" y="528" type="curve" smooth="yes"/>
      <point x="430" y="610"/>
      <point x="342" y="666"/>
      <point x="246" y="666" type="curve" smooth="yes"/>
      <point x="145" y="666"/>
      <point x="69" y="606"/>
      <point x="69" y="530" type="curve" smooth="yes"/>
      <point x="69" y="497"/>
      <point x="91" y="478"/>
      <point x="120" y="478" type="curve" smooth="yes"/>
      <point x="151" y="478"/>
      <point x="171" y="500"/>
      <point x="171" y="529" type="curve" smooth="yes"/>
      <point x="171" y="579"/>
      <point x="124" y="579"/>
      <point x="109" y="579" type="curve"/>
      <point x="140" y="628"/>
      <point x="206" y="641"/>
      <point x="242" y="641" type="curve" smooth="yes"/>
      <point x="283" y="641"/>
      <point x="338" y="619"/>
      <point x="338" y="529" type="curve" smooth="yes"/>
      <point x="338" y="473"/>
      <point x="318" y="365"/>
      <point x="223" y="363" type="curve"/>
      <point x="213" y="362"/>
      <point x="189" y="360"/>
      <point x="182" y="360" type="curve"/>
      <point x="174" y="359"/>
      <point x="167" y="358"/>
      <point x="167" y="348" type="curve" smooth="yes"/>
      <point x="167" y="337"/>
      <point x="174" y="337"/>
      <point x="191" y="337" type="curve" smooth="yes"/>
      <point x="235" y="337" type="line" smooth="yes"/>
      <point x="317" y="337"/>
      <point x="354" y="269"/>
      <point x="354" y="171" type="curve" smooth="yes"/>
      <point x="354" y="35"/>
      <point x="285" y="6"/>
      <point x="241" y="6" type="curve" smooth="yes"/>
      <point x="198" y="6"/>
      <point x="123" y="23"/>
      <point x="88" y="82" type="curve"/>
      <point x="123" y="77"/>
      <point x="154" y="99"/>
      <point x="154" y="137" type="curve" smooth="yes"/>
      <point x="154" y="173"/>
      <point x="127" y="193"/>
      <point x="98" y="193" type="curve" smooth="yes"/>
      <point x="74" y="193"/>
      <point x="42" y="179"/>
      <point x="42" y="135" type="curve" smooth="yes"/>
      <point x="42" y="44"/>
      <point x="135" y="-22"/>
    </contour>
  </outline>
</glyph>
<glyph name="four" format="2">
  <advance width="500"/>
  <unicode hex="0034"/>
  <outline>
    <contour>
      <point x="197" y="0" type="line"/>
      <point x="238" y="3"/>
      <point x="290" y="3"/>
      <point x="332" y="3" type="curve" smooth="yes"/>
      <point x="374" y="3"/>
      <point x="427" y="3"/>
      <point x="468" y="0" type="curve"/>
      <point x="468" y="31" type="line"/>
      <point x="447" y="31" type="line" smooth="yes"/>
      <point x="373" y="31"/>
      <point x="371" y="42"/>
      <point x="371" y="78" type="curve" smooth="yes"/>
      <point x="371" y="165" type="line"/>
      <point x="471" y="165" type="line"/>
      <point x="471" y="196" type="line"/>
      <point x="371" y="196" type="line"/>
      <point x="371" y="651" type="line" smooth="yes"/>
      <point x="371" y="671"/>
      <point x="371" y="677"/>
      <point x="355" y="677" type="curve" smooth="yes"/>
      <point x="346" y="677"/>
      <point x="343" y="677"/>
      <point x="335" y="665" type="curve" smooth="yes"/>
      <point x="28" y="196" type="line"/>
      <point x="28" y="165" type="line"/>
      <point x="294" y="165" type="line"/>
      <point x="294" y="78" type="line" smooth="yes"/>
      <point x="294" y="42"/>
      <point x="292" y="31"/>
      <point x="218" y="31" type="curve" smooth="yes"/>
      <point x="197" y="31" type="line"/>
    </contour>
    <contour>
      <point x="56" y="196" type="line"/>
      <point x="300" y="569" type="line"/>
      <point x="300" y="196" type="line"/>
    </contour>
  </outline>
</glyph>
<glyph name="semicolon" format="2">
  <advance width="277"/>
  <unicode hex="003B"/>
  <outline>
    <contour>
      <point x="139" y="325" type="curve" smooth="yes"/>
      <point x="168" y="325"/>
      <point x="192" y="349"/>
      <point x="192" y="378" type="curve" smooth="yes"/>
      <point x="192" y="407"/>
      <point x="168" y="431"/>
      <point x="139" y="431" type="curve" smooth="yes"/>
      <point x="110" y="431"/>
      <point x="86" y="407"/>
      <point x="86" y="378" type="curve" smooth="yes"/>
      <point x="86" y="349"/>
      <point x="110" y="325"/>
    </contour>
    <contour>
      <point x="112" y="-193" type="curve" smooth="yes"/>
      <point x="123" y="-193"/>
      <point x="195" y="-113"/>
      <point x="195" y="3" type="curve" smooth="yes"/>
      <point x="195" y="32"/>
      <point x="193" y="106"/>
      <point x="139" y="106" type="curve" smooth="yes"/>
      <point x="104" y="106"/>
      <point x="86" y="79"/>
      <point x="86" y="53" type="curve" smooth="yes"/>
      <point x="86" y="27"/>
      <point x="103" y="0"/>
      <point x="139" y="0" type="curve" smooth="yes"/>
      <point x="144" y="0"/>
      <point x="163.4" y="2.6"/>
      <point x="173" y="11" type="curve"/>
      <point x="173" y="-17"/>
      <point x="173" y="-95"/>
      <point x="109" y="-169" type="curve" smooth="yes"/>
      <point x="102" y="-177"/>
      <point x="102" y="-179"/>
      <point x="102" y="-182" type="curve" smooth="yes"/>
      <point x="102" y="-189"/>
      <point x="107" y="-193"/>
    </contour>
  </outline>
</glyph>
<glyph name="A" format="2">
  <advance width="750"/>
  <unicode hex="0041"/>
  <outline>
    <contour>
      <point x="398" y="696" type="line" smooth="yes"/>
      <point x="393" y="709"/>
      <point x="391" y="716"/>
      <point x="375" y="716" type="curve" smooth="yes"/>
      <point x="359" y="716"/>
      <point x="356" y="710"/>
      <point x="351" y="696" type="curve" smooth="yes"/>
      <point x="144" y="98" type="line" smooth="yes"/>
      <point x="126" y="47"/>
      <point x="86" y="32"/>
      <point x="32" y="31" type="curve"/>
      <point x="32" y="0" type="line"/>
      <point x="55" y="1"/>
      <point x="98" y="3"/>
      <point x="134" y="3" type="curve" smooth="yes"/>
      <point x="165" y="3"/>
      <point x="217" y="1"/>
      <point x="249" y="0" type="curve"/>
      <point x="249" y="31" type="line"/>
      <point x="199" y="31"/>
      <point x="174" y="56"/>
      <point x="174" y="82" type="curve" smooth="yes"/>
      <point x="174" y="85"/>
      <point x="175" y="95"/>
      <point x="176" y="97" type="curve"/>
      <point x="222" y="228" type="line"/>
      <point x="469" y="228" type="line"/>
      <point x="522" y="75" type="line"/>
      <point x="523" y="71"/>
      <point x="525" y="65"/>
      <point x="525" y="61" type="curve" smooth="yes"/>
      <point x="525" y="31"/>
      <point x="469" y="31"/>
      <point x="442" y="31" type="curve"/>
      <point x="442" y="0" type="line"/>
      <point x="478" y="3"/>
      <point x="548" y="3"/>
      <point x="586" y="3" type="curve" smooth="yes"/>
      <point x="629" y="3"/>
      <point x="675" y="2"/>
      <point x="717" y="0" type="curve"/>
      <point x="717" y="31" type="line"/>
      <point x="699" y="31" type="line" smooth="yes"/>
      <point x="639" y="31"/>
      <point x="625" y="38"/>
      <point x="614" y="71" type="curve" smooth="yes"/>
    </contour>
    <contour>
      <point x="345" y="584" type="line"/>
      <point x="458" y="259" type="line"/>
      <point x="233" y="259" type="line"/>
    </contour>
  </outline>
</glyph>
<glyph name="D" format="2">
  <advance width="763"/>
  <unicode hex="0044"/>
  <outline>
    <contour>
      <point x="138" y="78" type="line" smooth="yes"/>
      <point x="138" y="42"/>
      <point x="136" y="31"/>
      <point x="59" y="31" type="curve" smooth="yes"/>
      <point x="51" y="31"/>
      <point x="43" y="31"/>
      <point x="35" y="31" type="curve"/>
      <point x="35" y="0" type="line"/>
      <point x="401" y="0" type="line" smooth="yes"/>
      <point x="569" y="0"/>
      <point x="707" y="148"/>
      <point x="707" y="336" type="curve" smooth="yes"/>
      <point x="707" y="526"/>
      <point x="572" y="683"/>
      <point x="401" y="683" type="curve" smooth="yes"/>
      <point x="35" y="683" type="line"/>
      <point x="35" y="652" type="line"/>
      <point x="43" y="652"/>
      <point x="51" y="652"/>
      <point x="59" y="652" type="curve" smooth="yes"/>
      <point x="136" y="652"/>
      <point x="138" y="641"/>
      <point x="138" y="605" type="curve" smooth="yes"/>
    </contour>
    <contour>
      <point x="273" y="31" type="line" smooth="yes"/>
      <point x="226" y="31"/>
      <point x="224" y="38"/>
      <point x="224" y="71" type="curve" smooth="yes"/>
      <point x="224" y="612" type="line" smooth="yes"/>
      <point x="224" y="645"/>
      <point x="226" y="652"/>
      <point x="273" y="652" type="curve" smooth="yes"/>
      <point x="373" y="652" type="line" smooth="yes"/>
      <point x="435" y="652"/>
      <point x="504" y="630"/>
      <point x="555" y="559" type="curve" smooth="yes"/>
      <point x="598" y="500"/>
      <point x="607" y="414"/>
      <point x="607" y="336" type="curve" smooth="yes"/>
      <point x="607" y="225"/>
      <point x="588" y="165"/>
      <point x="552" y="116" type="curve" smooth="yes"/>
      <point x="532" y="89"/>
      <point x="475" y="31"/>
      <point x="374" y="31" type="curve" smooth="yes"/>
    </contour>
  </outline>
</glyph>
<glyph name="F" format="2">
  <advance width="652"/>
  <unicode hex="0046"/>
  <outline>
    <contour>
      <point x="136" y="78" type="line" smooth="yes"/>
      <point x="136" y="42"/>
      <point x="134" y="31"/>
      <point x="57" y="31" type="curve" smooth="yes"/>
      <point x="33" y="31" type="line"/>
      <point x="33" y="0" type="line"/>
      <point x="68" y="3"/>
      <point x="146" y="3"/>
      <point x="185" y="3" type="curve" smooth="yes"/>
      <point x="226" y="3"/>
      <point x="317" y="3"/>
      <point x="353" y="0" type="curve"/>
      <point x="353" y="31" type="line"/>
      <point x="320" y="31" type="line" smooth="yes"/>
      <point x="225" y="31"/>
      <point x="225" y="44"/>
      <point x="225" y="79" type="curve" smooth="yes"/>
      <point x="225" y="325" type="line"/>
      <point x="311" y="325" type="line" smooth="yes"/>
      <point x="407" y="325"/>
      <point x="417" y="293"/>
      <point x="417" y="208" type="curve"/>
      <point x="442" y="208" type="line"/>
      <point x="442" y="473" type="line"/>
      <point x="417" y="473" type="line"/>
      <point x="417" y="389"/>
      <point x="407" y="356"/>
      <point x="311" y="356" type="curve" smooth="yes"/>
      <point x="225" y="356" type="line"/>
      <point x="225" y="609" type="line" smooth="yes"/>
      <point x="225" y="642"/>
      <point x="227" y="649"/>
      <point x="274" y="649" type="curve" smooth="yes"/>
      <point x="394" y="649" type="line" smooth="yes"/>
      <point x="544" y="649"/>
      <point x="569" y="593"/>
      <point x="585" y="455" type="curve"/>
      <point x="610" y="455" type="line"/>
      <point x="582" y="680" type="line"/>
      <point x="33" y="680" type="line"/>
      <point x="33" y="649" type="line"/>
      <point x="57" y="649" type="line" smooth="yes"/>
      <point x="134" y="649"/>
      <point x="136" y="638"/>
      <point x="136" y="602" type="curve" smooth="yes"/>
    </contour>
  </outline>
</glyph>
<glyph name="G" format="2">
  <advance width="784"/>
  <unicode hex="0047"/>
  <outline>
    <contour>
      <point x="593" y="63" type="curve"/>
      <point x="606" y="41"/>
      <point x="646" y="1"/>
      <point x="657" y="1" type="curve" smooth="yes"/>
      <point x="666" y="1"/>
      <point x="666" y="9"/>
      <point x="666" y="24" type="curve" smooth="yes"/>
      <point x="666" y="198" type="line" smooth="yes"/>
      <point x="666" y="237"/>
      <point x="670" y="242"/>
      <point x="735" y="242" type="curve"/>
      <point x="735" y="273" type="line"/>
      <point x="698" y="272"/>
      <point x="643" y="270"/>
      <point x="613" y="270" type="curve" smooth="yes"/>
      <point x="573" y="270"/>
      <point x="488" y="270"/>
      <point x="452" y="273" type="curve"/>
      <point x="452" y="242" type="line"/>
      <point x="484" y="242" type="line" smooth="yes"/>
      <point x="574" y="242"/>
      <point x="577" y="231"/>
      <point x="577" y="194" type="curve" smooth="yes"/>
      <point x="577" y="130" type="line" smooth="yes"/>
      <point x="577" y="18"/>
      <point x="450" y="9"/>
      <point x="422" y="9" type="curve" smooth="yes"/>
      <point x="357" y="9"/>
      <point x="159" y="44"/>
      <point x="159" y="342" type="curve" smooth="yes"/>
      <point x="159" y="641"/>
      <point x="356" y="674"/>
      <point x="416" y="674" type="curve" smooth="yes"/>
      <point x="523" y="674"/>
      <point x="614" y="584"/>
      <point x="634" y="437" type="curve" smooth="yes"/>
      <point x="636" y="423"/>
      <point x="636" y="420"/>
      <point x="650" y="420" type="curve" smooth="yes"/>
      <point x="666" y="420"/>
      <point x="666" y="423"/>
      <point x="666" y="444" type="curve" smooth="yes"/>
      <point x="666" y="681" type="line" smooth="yes"/>
      <point x="666" y="698"/>
      <point x="666" y="705"/>
      <point x="655" y="705" type="curve" smooth="yes"/>
      <point x="651" y="705"/>
      <point x="647" y="705"/>
      <point x="639" y="693" type="curve" smooth="yes"/>
      <point x="589" y="619" type="line"/>
      <point x="557" y="651"/>
      <point x="503" y="705"/>
      <point x="404" y="705" type="curve" smooth="yes"/>
      <point x="218" y="705"/>
      <point x="56" y="547"/>
      <point x="56" y="342" type="curve" smooth="yes"/>
      <point x="56" y="137"/>
      <point x="216" y="-22"/>
      <point x="406" y="-22" type="curve" smooth="yes"/>
      <point x="479" y="-22"/>
      <point x="559" y="4"/>
    </contour>
  </outline>
</glyph>
<glyph name="H" format="2">
  <advance width="750"/>
  <unicode hex="0048"/>
  <outline>
    <contour>
      <point x="33" y="0" type="line"/>
      <point x="68" y="3"/>
      <point x="142" y="3"/>
      <point x="180" y="3" type="curve" smooth="yes"/>
      <point x="218" y="3"/>
      <point x="293" y="3"/>
      <point x="328" y="0" type="curve"/>
      <point x="328" y="31" type="line"/>
      <point x="304" y="31" type="line" smooth="yes"/>
      <point x="227" y="31"/>
      <point x="225" y="42"/>
      <point x="225" y="78" type="curve" smooth="yes"/>
      <point x="225" y="340" type="line"/>
      <point x="524" y="340" type="line"/>
      <point x="524" y="78" type="line" smooth="yes"/>
      <point x="524" y="42"/>
      <point x="522" y="31"/>
      <point x="445" y="31" type="curve" smooth="yes"/>
      <point x="421" y="31" type="line"/>
      <point x="421" y="0" type="line"/>
      <point x="456" y="3"/>
      <point x="530" y="3"/>
      <point x="568" y="3" type="curve" smooth="yes"/>
      <point x="606" y="3"/>
      <point x="681" y="3"/>
      <point x="716" y="0" type="curve"/>
      <point x="716" y="31" type="line"/>
      <point x="692" y="31" type="line" smooth="yes"/>
      <point x="615" y="31"/>
      <point x="613" y="42"/>
      <point x="613" y="78" type="curve" smooth="yes"/>
      <point x="613" y="605" type="line" smooth="yes"/>
      <point x="613" y="641"/>
      <point x="615" y="652"/>
      <point x="692" y="652" type="curve" smooth="yes"/>
      <point x="716" y="652" type="line"/>
      <point x="716" y="683" type="line"/>
      <point x="681" y="680"/>
      <point x="607" y="680"/>
      <point x="569" y="680" type="curve" smooth="yes"/>
      <point x="531" y="680"/>
      <point x="456" y="680"/>
      <point x="421" y="683" type="curve"/>
      <point x="421" y="652" type="line"/>
      <point x="445" y="652" type="line" smooth="yes"/>
      <point x="522" y="652"/>
      <point x="524" y="641"/>
      <point x="524" y="605" type="curve" smooth="yes"/>
      <point x="524" y="371" type="line"/>
      <point x="225" y="371" type="line"/>
      <point x="225" y="605" type="line" smooth="yes"/>
      <point x="225" y="641"/>
      <point x="227" y="652"/>
      <point x="304" y="652" type="curve" smooth="yes"/>
      <point x="328" y="652" type="line"/>
      <point x="328" y="683" type="line"/>
      <point x="293" y="680"/>
      <point x="219" y="680"/>
      <point x="181" y="680" type="curve" smooth="yes"/>
      <point x="143" y="680"/>
      <point x="68" y="680"/>
      <point x="33" y="683" type="curve"/>
      <point x="33" y="652" type="line"/>
      <point x="57" y="652" type="line" smooth="yes"/>
      <point x="134" y="652"/>
      <point x="136" y="641"/>
      <point x="136" y="605" type="curve" smooth="yes"/>
      <point x="136" y="78" type="line" smooth="yes"/>
      <point x="136" y="42"/>
      <point x="134" y="31"/>
      <point x="57" y="31" type="curve" smooth="yes"/>
      <point x="33" y="31" type="line"/>
    </contour>
  </outline>
</glyph>
<glyph name="I" format="2">
  <advance width="361"/>
  <unicode hex="0049"/>
  <outline>
    <contour>
      <point x="28" y="0" type="line"/>
      <point x="63" y="3"/>
      <point x="142" y="3"/>
      <point x="180" y="3" type="curve" smooth="yes"/>
      <point x="219" y="3"/>
      <point x="298" y="3"/>
      <point x="333" y="0" type="curve"/>
      <point x="333" y="31" type="line"/>
      <point x="307" y="31" type="line" smooth="yes"/>
      <point x="228" y="31"/>
      <point x="225" y="42"/>
      <point x="225" y="78" type="curve" smooth="yes"/>
      <point x="225" y="605" type="line" smooth="yes"/>
      <point x="225" y="641"/>
      <point x="228" y="652"/>
      <point x="307" y="652" type="curve" smooth="yes"/>
      <point x="333" y="652" type="line"/>
      <point x="333" y="683" type="line"/>
      <point x="298" y="680"/>
      <point x="219" y="680"/>
      <point x="181" y="680" type="curve" smooth="yes"/>
      <point x="142" y="680"/>
      <point x="63" y="680"/>
      <point x="28" y="683" type="curve"/>
      <point x="28" y="652" type="line"/>
      <point x="54" y="652" type="line" smooth="yes"/>
      <point x="133" y="652"/>
      <point x="136" y="641"/>
      <point x="136" y="605" type="curve" smooth="yes"/>
      <point x="136" y="78" type="line" smooth="yes"/>
      <point x="136" y="42"/>
      <point x="133" y="31"/>
      <point x="54" y="31" type="curve" smooth="yes"/>
      <point x="28" y="31" type="line"/>
    </contour>
  </outline>
</glyph>
<glyph name="J" format="2">
  <advance width="513"/>
  <unicode hex="004A"/>
  <outline>
    <contour>
      <point x="388" y="611" type="line" smooth="yes"/>
      <point x="388" y="652"/>
      <point x="402" y="652"/>
      <point x="465" y="652" type="curve"/>
      <point x="465" y="652" type="line"/>
      <point x="465" y="683" type="line"/>
      <point x="421" y="681"/>
      <point x="383" y="680"/>
      <point x="336" y="680" type="curve" smooth="yes"/>
      <point x="294" y="680"/>
      <point x="206" y="680"/>
      <point x="168" y="683" type="curve"/>
      <point x="168" y="652" type="line"/>
      <point x="204" y="652" type="line" smooth="yes"/>
      <point x="302" y="652"/>
      <point x="302" y="639"/>
      <point x="302" y="604" type="curve" smooth="yes"/>
      <point x="302" y="148" type="line" smooth="yes"/>
      <point x="302" y="56"/>
      <point x="252" y="0"/>
      <point x="199" y="0" type="curve" smooth="yes"/>
      <point x="193" y="0"/>
      <point x="125" y="0"/>
      <point x="89" y="58" type="curve"/>
      <point x="141" y="58"/>
      <point x="153" y="88"/>
      <point x="153" y="114" type="curve" smooth="yes"/>
      <point x="153" y="150"/>
      <point x="125" y="170"/>
      <point x="97" y="170" type="curve" smooth="yes"/>
      <point x="75" y="170"/>
      <point x="41" y="156"/>
      <point x="41" y="112" type="curve" smooth="yes"/>
      <point x="41" y="38"/>
      <point x="112" y="-22"/>
      <point x="201" y="-22" type="curve" smooth="yes"/>
      <point x="296" y="-22"/>
      <point x="388" y="45"/>
      <point x="388" y="144" type="curve" smooth="yes"/>
    </contour>
  </outline>
</glyph>
<glyph name="K" format="2">
  <advance width="777"/>
  <unicode hex="004B"/>
  <outline>
    <contour>
      <point x="33" y="0" type="line"/>
      <point x="68" y="3"/>
      <point x="142" y="3"/>
      <point x="180" y="3" type="curve" smooth="yes"/>
      <point x="218" y="3"/>
      <point x="293" y="3"/>
      <point x="328" y="0" type="curve"/>
      <point x="328" y="31" type="line"/>
      <point x="304" y="31" type="line" smooth="yes"/>
      <point x="227" y="31"/>
      <point x="225" y="42"/>
      <point x="225" y="78" type="curve" smooth="yes"/>
      <point x="225" y="253" type="line"/>
      <point x="341" y="363" type="line"/>
      <point x="522" y="95" type="line" smooth="yes"/>
      <point x="528" y="86"/>
      <point x="537" y="73"/>
      <point x="537" y="61" type="curve" smooth="yes"/>
      <point x="537" y="31"/>
      <point x="498" y="31"/>
      <point x="478" y="31" type="curve"/>
      <point x="478" y="0" type="line"/>
      <point x="513" y="3"/>
      <point x="583" y="3"/>
      <point x="621" y="3" type="curve" smooth="yes"/>
      <point x="656" y="3"/>
      <point x="694" y="2"/>
      <point x="736" y="0" type="curve"/>
      <point x="736" y="31" type="line"/>
      <point x="682" y="31"/>
      <point x="661" y="35"/>
      <point x="631" y="79" type="curve" smooth="yes"/>
      <point x="400" y="419" type="line"/>
      <point x="580" y="592" type="line" smooth="yes"/>
      <point x="588" y="600"/>
      <point x="641" y="651"/>
      <point x="722" y="652" type="curve"/>
      <point x="722" y="683" type="line"/>
      <point x="696" y="680"/>
      <point x="664" y="680"/>
      <point x="637" y="680" type="curve" smooth="yes"/>
      <point x="601" y="680"/>
      <point x="544" y="680"/>
      <point x="510" y="683" type="curve"/>
      <point x="510" y="652" type="line"/>
      <point x="550" y="651"/>
      <point x="556" y="628"/>
      <point x="556" y="619" type="curve" smooth="yes"/>
      <point x="556" y="603"/>
      <point x="546" y="593"/>
      <point x="538" y="586" type="curve" smooth="yes"/>
      <point x="225" y="287" type="line"/>
      <point x="225" y="605" type="line" smooth="yes"/>
      <point x="225" y="641"/>
      <point x="227" y="652"/>
      <point x="304" y="652" type="curve" smooth="yes"/>
      <point x="328" y="652" type="line"/>
      <point x="328" y="683" type="line"/>
      <point x="293" y="680"/>
      <point x="219" y="680"/>
      <point x="181" y="680" type="curve" smooth="yes"/>
      <point x="143" y="680"/>
      <point x="68" y="680"/>
      <point x="33" y="683" type="curve"/>
      <point x="33" y="652" type="line"/>
      <point x="57" y="652" type="line" smooth="yes"/>
      <point x="134" y="652"/>
      <point x="136" y="641"/>
      <point x="136" y="605" type="curve" smooth="yes"/>
      <point x="136" y="78" type="line" smooth="yes"/>
      <point x="136" y="42"/>
      <point x="134" y="31"/>
      <point x="57" y="31" type="curve" smooth="yes"/>
      <point x="33" y="31" type="line"/>
    </contour>
  </outline>
</glyph>
<glyph name="O" format="2">
  <advance width="777"/>
  <unicode hex="004F"/>
  <outline>
    <contour>
      <point x="721" y="339" type="curve" smooth="yes"/>
      <point x="721" y="543"/>
      <point x="570" y="705"/>
      <point x="388" y="705" type="curve" smooth="yes"/>
      <point x="209" y="705"/>
      <point x="56" y="545"/>
      <point x="56" y="339" type="curve" smooth="yes"/>
      <point x="56" y="134"/>
      <point x="210" y="-22"/>
      <point x="388" y="-22" type="curve" smooth="yes"/>
      <point x="570" y="-22"/>
      <point x="721" y="137"/>
    </contour>
    <contour>
      <point x="389" y="4" type="curve" smooth="yes"/>
      <point x="293" y="4"/>
      <point x="159" y="92"/>
      <point x="159" y="353" type="curve" smooth="yes"/>
      <point x="159" y="612"/>
      <point x="305" y="680"/>
      <point x="388" y="680" type="curve" smooth="yes"/>
      <point x="475" y="680"/>
      <point x="618" y="609"/>
      <point x="618" y="353" type="curve" smooth="yes"/>
      <point x="618" y="88"/>
      <point x="481" y="4"/>
    </contour>
  </outline>
</glyph>
<glyph name="V" format="2">
  <advance width="750"/>
  <unicode hex="0056"/>
  <outline>
    <contour>
      <point x="117" y="614" type="curve" smooth="yes"/>
      <point x="349" y="0" type="line" smooth="yes"/>
      <point x="356" y="-19"/>
      <point x="361" y="-22"/>
      <point x="374" y="-22" type="curve" smooth="yes"/>
      <point x="391" y="-22"/>
      <point x="393" y="-17"/>
      <point x="398" y="-3" type="curve" smooth="yes"/>
      <point x="621" y="585" type="line" smooth="yes"/>
      <point x="635" y="622"/>
      <point x="662" y="651"/>
      <point x="730" y="652" type="curve"/>
      <point x="730" y="683" type="line"/>
      <point x="699" y="681"/>
      <point x="659" y="680"/>
      <point x="633" y="680" type="curve" smooth="yes"/>
      <point x="603" y="680"/>
      <point x="545" y="682"/>
      <point x="519" y="683" type="curve"/>
      <point x="519" y="652" type="line"/>
      <point x="571" y="651"/>
      <point x="592" y="625"/>
      <point x="592" y="602" type="curve" smooth="yes"/>
      <point x="592" y="594"/>
      <point x="589" y="588"/>
      <point x="587" y="582" type="curve" smooth="yes"/>
      <point x="404" y="100" type="line"/>
      <point x="213" y="605" type="line" smooth="yes"/>
      <point x="207" y="619"/>
      <point x="207" y="621"/>
      <point x="207" y="623" type="curve" smooth="yes"/>
      <point x="207" y="652"/>
      <point x="264" y="652"/>
      <point x="289" y="652" type="curve"/>
      <point x="289" y="683" type="line"/>
      <point x="253" y="680"/>
      <point x="184" y="680"/>
      <point x="146" y="680" type="curve" smooth="yes"/>
      <point x="98" y="680"/>
      <point x="55" y="682"/>
      <point x="19" y="683" type="curve"/>
      <point x="19" y="652" type="line"/>
      <point x="19" y="652" type="line"/>
      <point x="84" y="652"/>
      <point x="103" y="652"/>
    </contour>
  </outline>
</glyph>
<glyph name="W" format="2">
  <advance width="1027"/>
  <unicode hex="0057"/>
  <outline>
    <contour>
      <point x="328" y="-22" type="curve" smooth="yes"/>
      <point x="342" y="-22"/>
      <point x="344" y="-15"/>
      <point x="348" y="-2" type="curve" smooth="yes"/>
      <point x="513" y="506" type="line"/>
      <point x="679" y="-3" type="line" smooth="yes"/>
      <point x="682" y="-12"/>
      <point x="685" y="-22"/>
      <point x="698" y="-22" type="curve" smooth="yes"/>
      <point x="712" y="-22"/>
      <point x="714" y="-15"/>
      <point x="718" y="-2" type="curve" smooth="yes"/>
      <point x="909" y="585" type="line" smooth="yes"/>
      <point x="927" y="642"/>
      <point x="970" y="652"/>
      <point x="1009" y="652" type="curve"/>
      <point x="1009" y="683" type="line"/>
      <point x="979" y="681"/>
      <point x="948" y="680"/>
      <point x="918" y="680" type="curve" smooth="yes"/>
      <point x="889" y="680"/>
      <point x="825" y="682"/>
      <point x="799" y="683" type="curve"/>
      <point x="799" y="652" type="line"/>
      <point x="866" y="651"/>
      <point x="886" y="618"/>
      <point x="886" y="599" type="curve" smooth="yes"/>
      <point x="886" y="593"/>
      <point x="883" y="585"/>
      <point x="881" y="579" type="curve" smooth="yes"/>
      <point x="731" y="117" type="line"/>
      <point x="571" y="607" type="line"/>
      <point x="570" y="611"/>
      <point x="568" y="617"/>
      <point x="568" y="622" type="curve" smooth="yes"/>
      <point x="568" y="652"/>
      <point x="626" y="652"/>
      <point x="652" y="652" type="curve"/>
      <point x="652" y="683" type="line"/>
      <point x="616" y="680"/>
      <point x="548" y="680"/>
      <point x="510" y="680" type="curve" smooth="yes"/>
      <point x="472" y="680"/>
      <point x="429" y="682"/>
      <point x="388" y="683" type="curve"/>
      <point x="388" y="652" type="line"/>
      <point x="388" y="652" type="line"/>
      <point x="445" y="652"/>
      <point x="466" y="652"/>
      <point x="478" y="616" type="curve"/>
      <point x="485" y="593"/>
      <point x="493" y="569"/>
      <point x="500" y="546" type="curve"/>
      <point x="361" y="117" type="line"/>
      <point x="200" y="609" type="line" smooth="yes"/>
      <point x="199" y="612"/>
      <point x="198" y="619"/>
      <point x="198" y="622" type="curve" smooth="yes"/>
      <point x="198" y="652"/>
      <point x="256" y="652"/>
      <point x="282" y="652" type="curve"/>
      <point x="282" y="683" type="line"/>
      <point x="246" y="680"/>
      <point x="178" y="680"/>
      <point x="140" y="680" type="curve" smooth="yes"/>
      <point x="102" y="680"/>
      <point x="59" y="682"/>
      <point x="18" y="683" type="curve"/>
      <point x="18" y="652" type="line"/>
      <point x="18" y="652" type="line"/>
      <point x="93" y="652"/>
      <point x="97" y="647"/>
      <point x="109" y="610" type="curve" smooth="yes"/>
      <point x="309" y="-3" type="line" smooth="yes"/>
      <point x="312" y="-12"/>
      <point x="315" y="-22"/>
    </contour>
  </outline>
</glyph>
<glyph name="X" format="2">
  <advance width="750"/>
  <unicode hex="0058"/>
  <outline>
    <contour>
      <point x="402" y="386" type="line"/>
      <point x="539" y="587" type="line" smooth="yes"/>
      <point x="561" y="619"/>
      <point x="595" y="651"/>
      <point x="684" y="652" type="curve"/>
      <point x="684" y="683" type="line"/>
      <point x="645" y="682"/>
      <point x="598" y="680"/>
      <point x="573" y="680" type="curve" smooth="yes"/>
      <point x="533" y="680"/>
      <point x="485" y="680"/>
      <point x="445" y="683" type="curve"/>
      <point x="445" y="652" type="line"/>
      <point x="485" y="651"/>
      <point x="507" y="629"/>
      <point x="507" y="606" type="curve" smooth="yes"/>
      <point x="507" y="596"/>
      <point x="505" y="594"/>
      <point x="498" y="583" type="curve" smooth="yes"/>
      <point x="384" y="414" type="line"/>
      <point x="255" y="607" type="line" smooth="yes"/>
      <point x="253" y="610"/>
      <point x="248" y="618"/>
      <point x="248" y="622" type="curve" smooth="yes"/>
      <point x="248" y="634"/>
      <point x="270" y="651"/>
      <point x="313" y="652" type="curve"/>
      <point x="313" y="683" type="line"/>
      <point x="278" y="680"/>
      <point x="205" y="680"/>
      <point x="167" y="680" type="curve" smooth="yes"/>
      <point x="136" y="680"/>
      <point x="74" y="681"/>
      <point x="37" y="683" type="curve"/>
      <point x="37" y="652" type="line"/>
      <point x="56" y="652" type="line" smooth="yes"/>
      <point x="111" y="652"/>
      <point x="130" y="645"/>
      <point x="149" y="617" type="curve" smooth="yes"/>
      <point x="333" y="339" type="line"/>
      <point x="169" y="97" type="line" smooth="yes"/>
      <point x="155" y="77"/>
      <point x="125" y="31"/>
      <point x="24" y="31" type="curve"/>
      <point x="24" y="0" type="line"/>
      <point x="60" y="1"/>
      <point x="102" y="3"/>
      <point x="135" y="3" type="curve" smooth="yes"/>
      <point x="172" y="3"/>
      <point x="227" y="3"/>
      <point x="263" y="0" type="curve"/>
      <point x="263" y="31" type="line"/>
      <point x="217" y="32"/>
      <point x="200" y="59"/>
      <point x="200" y="77" type="curve" smooth="yes"/>
      <point x="200" y="86"/>
      <point x="203" y="90"/>
      <point x="210" y="101" type="curve" smooth="yes"/>
      <point x="352" y="311" type="line"/>
      <point x="510" y="72" type="line"/>
      <point x="512" y="68"/>
      <point x="515" y="64"/>
      <point x="515" y="61" type="curve" smooth="yes"/>
      <point x="515" y="49"/>
      <point x="493" y="32"/>
      <point x="450" y="31" type="curve"/>
      <point x="450" y="0" type="line"/>
      <point x="485" y="3"/>
      <point x="558" y="3"/>
      <point x="596" y="3" type="curve" smooth="yes"/>
      <point x="638" y="3"/>
      <point x="684" y="2"/>
      <point x="726" y="0" type="curve"/>
      <point x="726" y="31" type="line"/>
      <point x="707" y="31" type="line" smooth="yes"/>
      <point x="655" y="31"/>
      <point x="634" y="36"/>
      <point x="613" y="67" type="curve" smooth="yes"/>
    </contour>
  </outline>
</glyph>
<glyph name="Y" format="2">
  <advance width="750"/>
  <unicode hex="0059"/>
  <outline>
    <contour>
      <point x="228" y="0" type="line"/>
      <point x="264" y="3"/>
      <point x="335" y="3"/>
      <point x="374" y="3" type="curve" smooth="yes"/>
      <point x="413" y="3"/>
      <point x="484" y="3"/>
      <point x="520" y="0" type="curve"/>
      <point x="520" y="31" type="line"/>
      <point x="497" y="31" type="line" smooth="yes"/>
      <point x="420" y="31"/>
      <point x="417" y="41"/>
      <point x="417" y="80" type="curve" smooth="yes"/>
      <point x="417" y="273" type="line"/>
      <point x="610" y="587" type="line" smooth="yes"/>
      <point x="647" y="648"/>
      <point x="706" y="652"/>
      <point x="738" y="652" type="curve"/>
      <point x="738" y="683" type="line"/>
      <point x="707" y="681"/>
      <point x="667" y="680"/>
      <point x="640" y="680" type="curve" smooth="yes"/>
      <point x="609" y="680"/>
      <point x="551" y="682"/>
      <point x="525" y="683" type="curve"/>
      <point x="525" y="652" type="line"/>
      <point x="566" y="652"/>
      <point x="582" y="633"/>
      <point x="582" y="613" type="curve" smooth="yes"/>
      <point x="582" y="602"/>
      <point x="576" y="589"/>
      <point x="572" y="583" type="curve" smooth="yes"/>
      <point x="407" y="315" type="line"/>
      <point x="226" y="610" type="line" smooth="yes"/>
      <point x="220" y="620"/>
      <point x="219" y="622"/>
      <point x="219" y="627" type="curve" smooth="yes"/>
      <point x="219" y="648"/>
      <point x="244" y="652"/>
      <point x="289" y="652" type="curve"/>
      <point x="289" y="683" type="line"/>
      <point x="253" y="680"/>
      <point x="180" y="680"/>
      <point x="141" y="680" type="curve" smooth="yes"/>
      <point x="99" y="680"/>
      <point x="53" y="681"/>
      <point x="11" y="683" type="curve"/>
      <point x="11" y="652" type="line"/>
      <point x="29" y="652" type="line" smooth="yes"/>
      <point x="97" y="652"/>
      <point x="105" y="641"/>
      <point x="121" y="615" type="curve" smooth="yes"/>
      <point x="331" y="273" type="line"/>
      <point x="331" y="78" type="line" smooth="yes"/>
      <point x="331" y="42"/>
      <point x="329" y="31"/>
      <point x="252" y="31" type="curve" smooth="yes"/>
      <point x="228" y="31" type="line"/>
    </contour>
  </outline>
</glyph>
<glyph name="Z" format="2">
  <advance width="611"/>
  <unicode hex="005A"/>
  <outline>
    <contour>
      <point x="547" y="648" type="line" smooth="yes"/>
      <point x="554" y="659"/>
      <point x="554" y="660"/>
      <point x="554" y="667" type="curve" smooth="yes"/>
      <point x="554" y="683"/>
      <point x="548" y="683"/>
      <point x="528" y="683" type="curve" smooth="yes"/>
      <point x="80" y="683" type="line"/>
      <point x="69" y="458" type="line"/>
      <point x="94" y="458" type="line"/>
      <point x="101" y="571"/>
      <point x="131" y="652"/>
      <point x="295" y="652" type="curve" smooth="yes"/>
      <point x="452" y="652" type="line"/>
      <point x="63" y="37" type="line" smooth="yes"/>
      <point x="56" y="26"/>
      <point x="56" y="25"/>
      <point x="56" y="17" type="curve" smooth="yes"/>
      <point x="56" y="0"/>
      <point x="61" y="0"/>
      <point x="82" y="0" type="curve" smooth="yes"/>
      <point x="543" y="0" type="line"/>
      <point x="560" y="267" type="line"/>
      <point x="535" y="267" type="line"/>
      <point x="527" y="128"/>
      <point x="508" y="34"/>
      <point x="323" y="34" type="curve" smooth="yes"/>
      <point x="159" y="34" type="line"/>
    </contour>
  </outline>
</glyph>
<glyph name="bracketleft" format="2">
  <advance width="277"/>
  <unicode hex="005B"/>
  <outline>
    <contour>
      <point x="255" y="710" type="line"/>
      <point x="255" y="750" type="line"/>
      <point x="118" y="750" type="line"/>
      <point x="118" y="-250" type="line"/>
      <point x="255" y="-250" type="line"/>
      <point x="255" y="-210" type="line"/>
      <point x="158" y="-210" type="line"/>
      <point x="158" y="710" type="line"/>
    </contour>
  </outline>
</glyph>
<glyph name="d" format="2">
  <advance width="555"/>
  <unicode hex="0064"/>
  <outline>
    <contour>
      <point x="380" y="55" type="curve"/>
      <point x="380" y="-11" type="line"/>
      <point x="527" y="0" type="line"/>
      <point x="527" y="31" type="line"/>
      <point x="457" y="31"/>
      <point x="449" y="38"/>
      <point x="449" y="87" type="curve" smooth="yes"/>
      <point x="449" y="694" type="line"/>
      <point x="305" y="683" type="line"/>
      <point x="305" y="652" type="line"/>
      <point x="375" y="652"/>
      <point x="383" y="645"/>
      <point x="383" y="596" type="curve" smooth="yes"/>
      <point x="383" y="380" type="line"/>
      <point x="354" y="416"/>
      <point x="311" y="442"/>
      <point x="257" y="442" type="curve" smooth="yes"/>
      <point x="139" y="442"/>
      <point x="34" y="344"/>
      <point x="34" y="215" type="curve" smooth="yes"/>
      <point x="34" y="88"/>
      <point x="132" y="-11"/>
      <point x="246" y="-11" type="curve" smooth="yes"/>
      <point x="310" y="-11"/>
      <point x="355" y="23"/>
    </contour>
    <contour>
      <point x="380" y="323" type="curve" smooth="yes"/>
      <point x="380" y="118" type="line" smooth="yes"/>
      <point x="380" y="100"/>
      <point x="380" y="98"/>
      <point x="369" y="81" type="curve" smooth="yes"/>
      <point x="339" y="33"/>
      <point x="294" y="11"/>
      <point x="251" y="11" type="curve" smooth="yes"/>
      <point x="206" y="11"/>
      <point x="170" y="37"/>
      <point x="146" y="75" type="curve" smooth="yes"/>
      <point x="120" y="116"/>
      <point x="117" y="173"/>
      <point x="117" y="214" type="curve" smooth="yes"/>
      <point x="117" y="251"/>
      <point x="119" y="311"/>
      <point x="148" y="356" type="curve" smooth="yes"/>
      <point x="169" y="387"/>
      <point x="207" y="420"/>
      <point x="261" y="420" type="curve" smooth="yes"/>
      <point x="296" y="420"/>
      <point x="338" y="405"/>
      <point x="369" y="360" type="curve" smooth="yes"/>
      <point x="380" y="343"/>
      <point x="380" y="341"/>
    </contour>
  </outline>
</glyph>
<glyph name="f" format="2">
  <advance width="305"/>
  <unicode hex="0066"/>
  <outline>
    <contour>
      <point x="112" y="76" type="line" smooth="yes"/>
      <point x="112" y="31"/>
      <point x="101" y="31"/>
      <point x="34" y="31" type="curve"/>
      <point x="34" y="31" type="line"/>
      <point x="34" y="0" type="line"/>
      <point x="73" y="1"/>
      <point x="120" y="3"/>
      <point x="148" y="3" type="curve" smooth="yes"/>
      <point x="188" y="3"/>
      <point x="235" y="3"/>
      <point x="275" y="0" type="curve"/>
      <point x="275" y="31" type="line"/>
      <point x="254" y="31" type="line" smooth="yes"/>
      <point x="180" y="31"/>
      <point x="178" y="42"/>
      <point x="178" y="78" type="curve" smooth="yes"/>
      <point x="178" y="400" type="line"/>
      <point x="292" y="400" type="line"/>
      <point x="292" y="431" type="line"/>
      <point x="175" y="431" type="line"/>
      <point x="175" y="547" type="line" smooth="yes"/>
      <point x="175" y="635"/>
      <point x="223" y="683"/>
      <point x="267" y="683" type="curve" smooth="yes"/>
      <point x="270" y="683"/>
      <point x="285" y="683"/>
      <point x="300" y="676" type="curve"/>
      <point x="288" y="672"/>
      <point x="270" y="659"/>
      <point x="270" y="634" type="curve" smooth="yes"/>
      <point x="270" y="611"/>
      <point x="286" y="591"/>
      <point x="313" y="591" type="curve" smooth="yes"/>
      <point x="342" y="591"/>
      <point x="357" y="611"/>
      <point x="357" y="635" type="curve" smooth="yes"/>
      <point x="357" y="672"/>
      <point x="320" y="705"/>
      <point x="267" y="705" type="curve" smooth="yes"/>
      <point x="197" y="705"/>
      <point x="112" y="652"/>
      <point x="112" y="546" type="curve" smooth="yes"/>
      <point x="112" y="431" type="line"/>
      <point x="33" y="431" type="line"/>
      <point x="33" y="400" type="line"/>
      <point x="112" y="400" type="line"/>
    </contour>
  </outline>
</glyph>
<glyph name="j" format="2">
  <advance width="305"/>
  <unicode hex="006A"/>
  <outline>
    <contour>
      <point x="210" y="442" type="line"/>
      <point x="58" y="431" type="line"/>
      <point x="58" y="400" type="line"/>
      <point x="135" y="400"/>
      <point x="144" y="393"/>
      <point x="144" y="344" type="curve" smooth="yes"/>
      <point x="144" y="-52" type="line" smooth="yes"/>
      <point x="144" y="-97"/>
      <point x="135" y="-183"/>
      <point x="71" y="-183" type="curve" smooth="yes"/>
      <point x="66" y="-183"/>
      <point x="43" y="-183"/>
      <point x="17" y="-170" type="curve"/>
      <point x="32" y="-166"/>
      <point x="52" y="-152"/>
      <point x="52" y="-125" type="curve" smooth="yes"/>
      <point x="52" y="-99"/>
      <point x="34" y="-79"/>
      <point x="6" y="-79" type="curve" smooth="yes"/>
      <point x="-22" y="-79"/>
      <point x="-40" y="-99"/>
      <point x="-40" y="-125" type="curve" smooth="yes"/>
      <point x="-40" y="-177"/>
      <point x="16" y="-205"/>
      <point x="73" y="-205" type="curve" smooth="yes"/>
      <point x="148" y="-205"/>
      <point x="210" y="-141"/>
      <point x="210" y="-50" type="curve" smooth="yes"/>
    </contour>
    <contour>
      <point x="210" y="616" type="curve" smooth="yes"/>
      <point x="210" y="645"/>
      <point x="186" y="669"/>
      <point x="157" y="669" type="curve" smooth="yes"/>
      <point x="128" y="669"/>
      <point x="104" y="645"/>
      <point x="104" y="616" type="curve" smooth="yes"/>
      <point x="104" y="587"/>
      <point x="128" y="563"/>
      <point x="157" y="563" type="curve" smooth="yes"/>
      <point x="186" y="563"/>
      <point x="210" y="587"/>
    </contour>
  </outline>
</glyph>
<glyph name="k" format="2">
  <advance width="527"/>
  <unicode hex="006B"/>
  <outline>
    <contour>
      <point x="28" y="0" type="line"/>
      <point x="61" y="1"/>
      <point x="108" y="3"/>
      <point x="137" y="3" type="curve" smooth="yes"/>
      <point x="167" y="3"/>
      <point x="207" y="2"/>
      <point x="247" y="0" type="curve"/>
      <point x="247" y="31" type="line"/>
      <point x="247" y="31" type="line"/>
      <point x="180" y="31"/>
      <point x="169" y="31"/>
      <point x="169" y="76" type="curve" smooth="yes"/>
      <point x="169" y="179" type="line"/>
      <point x="233" y="234" type="line"/>
      <point x="233" y="234" type="line"/>
      <point x="310" y="128"/>
      <point x="352" y="72"/>
      <point x="352" y="54" type="curve" smooth="yes"/>
      <point x="352" y="35"/>
      <point x="335" y="31"/>
      <point x="316" y="31" type="curve"/>
      <point x="316" y="0" type="line"/>
      <point x="344" y="1"/>
      <point x="403" y="3"/>
      <point x="424" y="3" type="curve" smooth="yes"/>
      <point x="453" y="3"/>
      <point x="482" y="2"/>
      <point x="511" y="0" type="curve"/>
      <point x="511" y="31" type="line"/>
      <point x="474" y="31"/>
      <point x="452" y="31"/>
      <point x="414" y="84" type="curve" smooth="yes"/>
      <point x="279" y="274" type="line"/>
      <point x="360" y="344" type="line" smooth="yes"/>
      <point x="422" y="397"/>
      <point x="467" y="399"/>
      <point x="488" y="400" type="curve"/>
      <point x="488" y="431" type="line"/>
      <point x="459" y="428"/>
      <point x="446" y="428"/>
      <point x="418" y="428" type="curve" smooth="yes"/>
      <point x="382" y="428"/>
      <point x="320" y="430"/>
      <point x="306" y="431" type="curve"/>
      <point x="306" y="400" type="line"/>
      <point x="325" y="399"/>
      <point x="335" y="388"/>
      <point x="335" y="375" type="curve" smooth="yes"/>
      <point x="335" y="355"/>
      <point x="321" y="343"/>
      <point x="313" y="336" type="curve" smooth="yes"/>
      <point x="172" y="214" type="line"/>
      <point x="172" y="694" type="line"/>
      <point x="28" y="683" type="line"/>
      <point x="28" y="652" type="line"/>
      <point x="98" y="652"/>
      <point x="106" y="645"/>
      <point x="106" y="596" type="curve" smooth="yes"/>
      <point x="106" y="76" type="line" smooth="yes"/>
      <point x="106" y="31"/>
      <point x="95" y="31"/>
      <point x="28" y="31" type="curve"/>
      <point x="28" y="31" type="line"/>
    </contour>
  </outline>
</glyph>
<glyph name="t" format="2">
  <advance width="388"/>
  <unicode hex="0074"/>
  <outline>
    <contour>
      <point x="173" y="400" type="line"/>
      <point x="316" y="400" type="line"/>
      <point x="316" y="431" type="line"/>
      <point x="173" y="431" type="line"/>
      <point x="173" y="615" type="line"/>
      <point x="148" y="615" type="line"/>
      <point x="147" y="533"/>
      <point x="117" y="426"/>
      <point x="19" y="422" type="curve"/>
      <point x="19" y="400" type="line"/>
      <point x="104" y="400" type="line"/>
      <point x="104" y="124" type="line" smooth="yes"/>
      <point x="104" y="1"/>
      <point x="197" y="-11"/>
      <point x="233" y="-11" type="curve" smooth="yes"/>
      <point x="304" y="-11"/>
      <point x="332" y="60"/>
      <point x="332" y="124" type="curve" smooth="yes"/>
      <point x="332" y="181" type="line"/>
      <point x="307" y="181" type="line"/>
      <point x="307" y="126" type="line" smooth="yes"/>
      <point x="307" y="52"/>
      <point x="277" y="14"/>
      <point x="240" y="14" type="curve" smooth="yes"/>
      <point x="173" y="14"/>
      <point x="173" y="105"/>
      <point x="173" y="122" type="curve" smooth="yes"/>
    </contour>
  </outline>
</glyph>
<glyph name="u" format="2">
  <advance width="555"/>
  <unicode hex="0075"/>
  <outline>
    <contour>
      <point x="110" y="158" type="line" smooth="yes"/>
      <point x="110.0" y="110.78971999999999"/>
      <point x="110.0" y="58.81702432119999"/>
      <point x="143.70307357615957" y="25.14191067360389" type="curve" smooth="yes"/>
      <point x="165.6836294752" y="3.1795897515999876"/>
      <point x="201.99952000000002" y="-11.000000000000009"/>
      <point x="262" y="-11" type="curve" smooth="yes"/>
      <point x="318" y="-11"/>
      <point x="362" y="17"/>
      <point x="391" y="79" type="curve"/>
      <point x="391" y="79" type="line"/>
      <point x="391" y="-11" type="line"/>
      <point x="535" y="0" type="line"/>
      <point x="535" y="31" type="line"/>
      <point x="465" y="31"/>
      <point x="457" y="38"/>
      <point x="457" y="87" type="curve" smooth="yes"/>
      <point x="457" y="442" type="line"/>
      <point x="310" y="431" type="line"/>
      <point x="310" y="400" type="line"/>
      <point x="380" y="400"/>
      <point x="388" y="393"/>
      <point x="388" y="344" type="curve" smooth="yes"/>
      <point x="388" y="166" type="line" smooth="yes"/>
      <point x="388" y="79"/>
      <point x="340" y="11"/>
      <point x="267" y="11" type="curve" smooth="yes"/>
      <point x="183" y="11"/>
      <point x="179" y="58"/>
      <point x="179" y="110" type="curve" smooth="yes"/>
      <point x="179" y="442" type="line"/>
      <point x="32" y="431" type="line"/>
      <point x="32" y="400" type="line"/>
      <point x="110" y="400"/>
      <point x="110" y="397"/>
      <point x="110" y="308" type="curve" smooth="yes"/>
    </contour>
  </outline>
</glyph>
<glyph name="v" format="2">
  <advance width="527"/>
  <unicode hex="0076"/>
  <outline>
    <contour>
      <point x="99" y="363" type="curve" smooth="yes"/>
      <point x="243" y="8" type="line" smooth="yes"/>
      <point x="249" y="-6"/>
      <point x="251" y="-11"/>
      <point x="264" y="-11" type="curve" smooth="yes"/>
      <point x="277" y="-11"/>
      <point x="281" y="-2"/>
      <point x="285" y="8" type="curve" smooth="yes"/>
      <point x="416" y="333" type="line" smooth="yes"/>
      <point x="425" y="356"/>
      <point x="442" y="399"/>
      <point x="508" y="400" type="curve"/>
      <point x="508" y="431" type="line"/>
      <point x="485" y="429"/>
      <point x="456" y="428"/>
      <point x="433" y="428" type="curve" smooth="yes"/>
      <point x="409" y="428"/>
      <point x="363" y="430"/>
      <point x="346" y="431" type="curve"/>
      <point x="346" y="400" type="line"/>
      <point x="383" y="399"/>
      <point x="394" y="376"/>
      <point x="394" y="357" type="curve" smooth="yes"/>
      <point x="394" y="348"/>
      <point x="392" y="344"/>
      <point x="388" y="333" type="curve" smooth="yes"/>
      <point x="286" y="78" type="line"/>
      <point x="174" y="357" type="line"/>
      <point x="168" y="370"/>
      <point x="168" y="372"/>
      <point x="168" y="374" type="curve" smooth="yes"/>
      <point x="168" y="400"/>
      <point x="207" y="400"/>
      <point x="225" y="400" type="curve"/>
      <point x="225" y="431" type="line"/>
      <point x="195" y="430"/>
      <point x="139" y="428"/>
      <point x="116" y="428" type="curve" smooth="yes"/>
      <point x="89" y="428"/>
      <point x="49" y="429"/>
      <point x="19" y="431" type="curve"/>
      <point x="19" y="400" type="line"/>
      <point x="82" y="400"/>
      <point x="86" y="394"/>
    </contour>
  </outline>
</glyph>
<glyph name="macron" format="2">
  <advance width="500"/>
  <unicode hex="00AF"/>
  <outline>
    <contour>
      <point x="430" y="559" type="line"/>
      <point x="430" y="590" type="line"/>
      <point x="69" y="590" type="line"/>
      <point x="69" y="559" type="line"/>
    </contour>
  </outline>
</glyph>
<glyph name="acute" format="2">
  <advance width="500"/>
  <unicode hex="00B4"/>
  <outline>
    <contour>
      <point x="375" y="632" type="line" smooth="yes"/>
      <point x="384" y="639"/>
      <point x="392" y="650"/>
      <point x="392" y="662" type="curve" smooth="yes"/>
      <point x="392" y="680"/>
      <point x="374" y="698"/>
      <point x="356" y="698" type="curve" smooth="yes"/>
      <point x="341" y="698"/>
      <point x="330" y="687"/>
      <point x="326" y="681" type="curve"/>
      <point x="206" y="528" type="line"/>
      <point x="223" y="510" type="line"/>
    </contour>
  </outline>
</glyph>
<glyph name="cedilla" format="2">
  <advance width="444"/>
  <unicode hex="00B8"/>
  <outline>
    <contour>
      <point x="131" y="-203" type="line"/>
      <point x="175" y="-203" type="line" smooth="yes"/>
      <point x="179" y="-203"/>
      <point x="246" y="-203"/>
      <point x="293" y="-192" type="curve" smooth="yes"/>
      <point x="334" y="-183"/>
      <point x="367" y="-165"/>
      <point x="367" y="-126" type="curve" smooth="yes"/>
      <point x="367" y="-83"/>
      <point x="330" y="-62"/>
      <point x="284" y="-55" type="curve"/>
      <point x="284" y="-22" type="line"/>
      <point x="215" y="-22" type="line"/>
      <point x="215" y="-71" type="line"/>
      <point x="269" y="-72"/>
      <point x="298" y="-95"/>
      <point x="298" y="-126" type="curve" smooth="yes"/>
      <point x="298" y="-164"/>
      <point x="255" y="-181"/>
      <point x="162" y="-181" type="curve" smooth="yes"/>
      <point x="131" y="-181" type="line"/>
    </contour>
  </outline>
</glyph>
<glyph name="germandbls" format="2">
  <advance width="500"/>
  <unicode hex="00DF"/>
  <outline>
    <contour>
      <point x="310" y="419" type="curve"/>
      <point x="399" y="444"/>
      <point x="443" y="505"/>
      <point x="443" y="563" type="curve" smooth="yes"/>
      <point x="443" y="638"/>
      <point x="371" y="705"/>
      <point x="272" y="705" type="curve" smooth="yes"/>
      <point x="195" y="705"/>
      <point x="106" y="656"/>
      <point x="106" y="556" type="curve" smooth="yes"/>
      <point x="106" y="431" type="line"/>
      <point x="28" y="431" type="line"/>
      <point x="28" y="400" type="line"/>
      <point x="106" y="400" type="line"/>
      <point x="106" y="76" type="line" smooth="yes"/>
      <point x="106" y="31"/>
      <point x="95" y="31"/>
      <point x="28" y="31" type="curve"/>
      <point x="28" y="0" type="line"/>
      <point x="47" y="1"/>
      <point x="113" y="3"/>
      <point x="126" y="3" type="curve" smooth="yes"/>
      <point x="137" y="3"/>
      <point x="154" y="3"/>
      <point x="172" y="0" type="curve"/>
      <point x="172" y="558" type="line" smooth="yes"/>
      <point x="172" y="672"/>
      <point x="252" y="683"/>
      <point x="272" y="683" type="curve" smooth="yes"/>
      <point x="313" y="683"/>
      <point x="368" y="652"/>
      <point x="368" y="564" type="curve" smooth="yes"/>
      <point x="368" y="500"/>
      <point x="333" y="439"/>
      <point x="244" y="431" type="curve" smooth="yes"/>
      <point x="235" y="430"/>
      <point x="228" y="430"/>
      <point x="228" y="420" type="curve" smooth="yes"/>
      <point x="228" y="418"/>
      <point x="228" y="410"/>
      <point x="237" y="409" type="curve" smooth="yes"/>
      <point x="356" y="399"/>
      <point x="396" y="277"/>
      <point x="396" y="173" type="curve" smooth="yes"/>
      <point x="396" y="44"/>
      <point x="331" y="11"/>
      <point x="293" y="11" type="curve" smooth="yes"/>
      <point x="284" y="11"/>
      <point x="261" y="13"/>
      <point x="243" y="30" type="curve"/>
      <point x="254" y="32"/>
      <point x="273" y="42"/>
      <point x="273" y="66" type="curve" smooth="yes"/>
      <point x="273" y="88"/>
      <point x="257" y="102"/>
      <point x="237" y="102" type="curve" smooth="yes"/>
      <point x="220" y="102"/>
      <point x="201" y="90"/>
      <point x="201" y="65" type="curve" smooth="yes"/>
      <point x="201" y="25"/>
      <point x="238" y="-11"/>
      <point x="296" y="-11" type="curve" smooth="yes"/>
      <point x="382" y="-11"/>
      <point x="471" y="62"/>
      <point x="471" y="174" type="curve" smooth="yes"/>
      <point x="471" y="246"/>
      <point x="439" y="366"/>
    </contour>
  </outline>
</glyph>
<glyph name="ae" format="2">
  <advance width="722"/>
  <unicode hex="00E6"/>
  <outline>
    <contour>
      <point x="204" y="-11" type="curve" smooth="yes"/>
      <point x="285" y="-11"/>
      <point x="347" y="29"/>
      <point x="371" y="78" type="curve"/>
      <point x="430" y="-3"/>
      <point x="508" y="-11"/>
      <point x="538" y="-11" type="curve" smooth="yes"/>
      <point x="651" y="-11"/>
      <point x="693" y="100"/>
      <point x="693" y="119" type="curve" smooth="yes"/>
      <point x="693" y="129"/>
      <point x="685" y="131"/>
      <point x="680" y="131" type="curve" smooth="yes"/>
      <point x="671" y="131"/>
      <point x="670" y="127"/>
      <point x="665" y="111" type="curve" smooth="yes"/>
      <point x="650" y="61"/>
      <point x="604" y="14"/>
      <point x="542" y="14" type="curve" smooth="yes"/>
      <point x="532" y="14"/>
      <point x="395" y="14"/>
      <point x="395" y="231" type="curve"/>
      <point x="668" y="231" type="line" smooth="yes"/>
      <point x="690" y="231"/>
      <point x="693" y="231"/>
      <point x="693" y="252" type="curve" smooth="yes"/>
      <point x="693" y="363"/>
      <point x="635" y="448"/>
      <point x="526" y="448" type="curve" smooth="yes"/>
      <point x="482" y="448"/>
      <point x="426" y="432"/>
      <point x="375" y="371" type="curve"/>
      <point x="346" y="419"/>
      <point x="286" y="448"/>
      <point x="222" y="448" type="curve" smooth="yes"/>
      <point x="142" y="448"/>
      <point x="71" y="402"/>
      <point x="71" y="335" type="curve" smooth="yes"/>
      <point x="71" y="305"/>
      <point x="91" y="288"/>
      <point x="117" y="288" type="curve" smooth="yes"/>
      <point x="145" y="288"/>
      <point x="163" y="308"/>
      <point x="163" y="334" type="curve" smooth="yes"/>
      <point x="163" y="346"/>
      <point x="158" y="379"/>
      <point x="112" y="380" type="curve"/>
      <point x="137" y="412"/>
      <point x="184" y="426"/>
      <point x="220" y="426" type="curve" smooth="yes"/>
      <point x="271" y="426"/>
      <point x="326" y="385"/>
      <point x="326" y="298" type="curve" smooth="yes"/>
      <point x="326" y="250" type="line"/>
      <point x="164" y="250"/>
      <point x="45" y="188"/>
      <point x="45" y="92" type="curve" smooth="yes"/>
      <point x="45" y="13"/>
      <point x="137" y="-11"/>
    </contour>
    <contour>
      <point x="209" y="11" type="curve" smooth="yes"/>
      <point x="162" y="11"/>
      <point x="122" y="45"/>
      <point x="122" y="92" type="curve" smooth="yes"/>
      <point x="122" y="146"/>
      <point x="164" y="223"/>
      <point x="326" y="229" type="curve"/>
      <point x="326" y="205"/>
      <point x="326" y="185"/>
      <point x="335" y="154" type="curve" smooth="yes"/>
      <point x="338" y="143"/>
      <point x="338" y="135"/>
      <point x="338" y="132" type="curve" smooth="yes"/>
      <point x="338" y="68"/>
      <point x="281" y="11"/>
    </contour>
    <contour>
      <point x="396" y="252" type="line"/>
      <point x="406" y="398"/>
      <point x="489" y="426"/>
      <point x="525" y="426" type="curve" smooth="yes"/>
      <point x="620" y="426"/>
      <point x="625" y="291"/>
      <point x="627" y="252" type="curve"/>
    </contour>
  </outline>
</glyph>
<glyph name="oslash" format="2">
  <advance width="500"/>
  <unicode hex="00F8"/>
  <outline>
    <contour>
      <point x="79" y="-102" type="line"/>
      <point x="147" y="16" type="line"/>
      <point x="170" y="3"/>
      <point x="207" y="-11"/>
      <point x="249" y="-11" type="curve" smooth="yes"/>
      <point x="368" y="-11"/>
      <point x="464" y="89"/>
      <point x="464" y="213" type="curve" smooth="yes"/>
      <point x="464" y="311"/>
      <point x="410" y="378"/>
      <point x="372" y="406" type="curve"/>
      <point x="439" y="522" type="line"/>
      <point x="420" y="534" type="line"/>
      <point x="354" y="418" type="line"/>
      <point x="331" y="433"/>
      <point x="293" y="448"/>
      <point x="250" y="448" type="curve" smooth="yes"/>
      <point x="131" y="448"/>
      <point x="35" y="342"/>
      <point x="35" y="213" type="curve" smooth="yes"/>
      <point x="35" y="133"/>
      <point x="75" y="66"/>
      <point x="129" y="28" type="curve"/>
      <point x="60" y="-90" type="line"/>
    </contour>
    <contour>
      <point x="250" y="11" type="curve" smooth="yes"/>
      <point x="225" y="11"/>
      <point x="191" y="18"/>
      <point x="163" y="42" type="curve"/>
      <point x="354" y="374" type="line"/>
      <point x="393" y="328"/>
      <point x="395" y="255"/>
      <point x="395" y="214" type="curve" smooth="yes"/>
      <point x="395" y="181"/>
      <point x="395" y="121"/>
      <point x="366" y="75" type="curve" smooth="yes"/>
      <point x="337" y="29"/>
      <point x="289" y="11"/>
    </contour>
    <contour>
      <point x="146" y="59" type="line"/>
      <point x="109" y="101"/>
      <point x="104" y="158"/>
      <point x="104" y="214" type="curve" smooth="yes"/>
      <point x="104" y="256"/>
      <point x="106" y="312"/>
      <point x="133" y="357" type="curve" smooth="yes"/>
      <point x="163" y="409"/>
      <point x="213" y="426"/>
      <point x="249" y="426" type="curve" smooth="yes"/>
      <point x="289" y="426"/>
      <point x="320" y="408"/>
      <point x="338" y="392" type="curve"/>
    </contour>
  </outline>
</glyph>
<glyph name="circumflex" format="2">
  <advance width="500"/>
  <unicode hex="02C6"/>
  <outline>
    <contour>
      <point x="250" y="694" type="line"/>
      <point x="116" y="558" type="line"/>
      <point x="134" y="540" type="line"/>
      <point x="250" y="642" type="line"/>
      <point x="365" y="540" type="line"/>
      <point x="383" y="558" type="line"/>
    </contour>
  </outline>
</glyph>
<glyph name="caron" format="2">
  <advance width="500"/>
  <unicode hex="02C7"/>
  <outline>
    <contour>
      <point x="250" y="569" type="line"/>
      <point x="132" y="638" type="line"/>
      <point x="118" y="618" type="line"/>
      <point x="249" y="516" type="line"/>
      <point x="381" y="618" type="line"/>
      <point x="367" y="638" type="line"/>
    </contour>
  </outline>
</glyph>
<glyph name="breve" format="2">
  <advance width="500"/>
  <unicode hex="02D8"/>
  <outline>
    <contour>
      <point x="377" y="694" type="line"/>
      <point x="375" y="607"/>
      <point x="309" y="560"/>
      <point x="250" y="560" type="curve" smooth="yes"/>
      <point x="187" y="560"/>
      <point x="124" y="609"/>
      <point x="122" y="694" type="curve"/>
      <point x="100" y="694" type="line"/>
      <point x="102" y="586"/>
      <point x="175" y="522"/>
      <point x="249" y="522" type="curve" smooth="yes"/>
      <point x="327" y="522"/>
      <point x="397" y="589"/>
      <point x="399" y="694" type="curve"/>
    </contour>
  </outline>
</glyph>
<glyph name="ring" format="2">
  <advance width="750"/>
  <unicode hex="02DA"/>
  <outline>
    <contour>
      <point x="470" y="629" type="curve" smooth="yes"/>
      <point x="470" y="675"/>
      <point x="429" y="716"/>
      <point x="375" y="716" type="curve" smooth="yes"/>
      <point x="318" y="716"/>
      <point x="279" y="673"/>
      <point x="279" y="629" type="curve" smooth="yes"/>
      <point x="279" y="579"/>
      <point x="323" y="541"/>
      <point x="374" y="541" type="curve" smooth="yes"/>
      <point x="429" y="541"/>
      <point x="470" y="581"/>
    </contour>
    <contour>
      <point x="375" y="563" type="curve" smooth="yes"/>
      <point x="332" y="563"/>
      <point x="304" y="582"/>
      <point x="304" y="628" type="curve" smooth="yes"/>
      <point x="304" y="674"/>
      <point x="331" y="694"/>
      <point x="374" y="694" type="curve" smooth="yes"/>
      <point x="417" y="694"/>
      <point x="445" y="675"/>
      <point x="445" y="629" type="curve" smooth="yes"/>
      <point x="445" y="583"/>
      <point x="418" y="563"/>
    </contour>
  </outline>
</glyph>
<glyph name="tilde" format="2">
  <advance width="500"/>
  <unicode hex="02DC"/>
  <outline>
    <contour>
      <point x="99" y="575" type="line"/>
      <point x="116" y="596"/>
      <point x="147" y="623"/>
      <point x="181" y="623" type="curve" smooth="yes"/>
      <point x="204" y="623"/>
      <point x="229" y="608"/>
      <point x="246" y="598" type="curve" smooth="yes"/>
      <point x="273" y="582"/>
      <point x="291" y="575"/>
      <point x="308" y="575" type="curve" smooth="yes"/>
      <point x="346" y="575"/>
      <point x="365" y="597"/>
      <point x="416" y="653" type="curve"/>
      <point x="400" y="668" type="line"/>
      <point x="386" y="650"/>
      <point x="353" y="620"/>
      <point x="318" y="620" type="curve" smooth="yes"/>
      <point x="295" y="620"/>
      <point x="270" y="635"/>
      <point x="253" y="645" type="curve" smooth="yes"/>
      <point x="226" y="661"/>
      <point x="208" y="668"/>
      <point x="191" y="668" type="curve" smooth="yes"/>
      <point x="153" y="668"/>
      <point x="134" y="646"/>
      <point x="83" y="590" type="curve"/>
    </contour>
  </outline>
</glyph>
<glyph name="hungarumlaut" format="2">
  <advance width="500"/>
  <unicode hex="02DD"/>
  <outline>
    <contour>
      <point x="128" y="525" type="line"/>
      <point x="149" y="513" type="line"/>
      <point x="241" y="639" type="line" smooth="yes"/>
      <point x="250" y="651"/>
      <point x="253" y="655"/>
      <point x="253" y="665" type="curve" smooth="yes"/>
      <point x="253" y="683"/>
      <point x="235" y="699"/>
      <point x="216" y="699" type="curve" smooth="yes"/>
      <point x="193" y="699"/>
      <point x="187" y="682"/>
      <point x="182" y="670" type="curve" smooth="yes"/>
    </contour>
    <contour>
      <point x="295" y="525" type="line"/>
      <point x="316" y="513" type="line"/>
      <point x="408" y="639" type="line" smooth="yes"/>
      <point x="417" y="651"/>
      <point x="420" y="655"/>
      <point x="420" y="665" type="curve" smooth="yes"/>
      <point x="420" y="683"/>
      <point x="402" y="699"/>
      <point x="383" y="699" type="curve" smooth="yes"/>
      <point x="360" y="699"/>
      <point x="354" y="682"/>
      <point x="349" y="670" type="curve" smooth="yes"/>
    </contour>
  </outline>
</glyph>
<glyph name="Gamma" format="2">
  <advance width="625"/>
  <unicode hex="0393"/>
  <outline>
    <contour>
      <point x="554" y="680" type="line"/>
      <point x="33" y="680" type="line"/>
      <point x="33" y="649" type="line"/>
      <point x="57" y="649" type="line" smooth="yes"/>
      <point x="134" y="649"/>
      <point x="136" y="638"/>
      <point x="136" y="602" type="curve" smooth="yes"/>
      <point x="136" y="78" type="line" smooth="yes"/>
      <point x="136" y="42"/>
      <point x="134" y="31"/>
      <point x="57" y="31" type="curve" smooth="yes"/>
      <point x="33" y="31" type="line"/>
      <point x="33" y="0" type="line"/>
      <point x="68" y="3"/>
      <point x="146" y="3"/>
      <point x="185" y="3" type="curve" smooth="yes"/>
      <point x="226" y="3"/>
      <point x="317" y="3"/>
      <point x="353" y="0" type="curve"/>
      <point x="353" y="31" type="line"/>
      <point x="320" y="31" type="line" smooth="yes"/>
      <point x="225" y="31"/>
      <point x="225" y="44"/>
      <point x="225" y="79" type="curve" smooth="yes"/>
      <point x="225" y="609" type="line" smooth="yes"/>
      <point x="225" y="642"/>
      <point x="227" y="649"/>
      <point x="274" y="649" type="curve" smooth="yes"/>
      <point x="377" y="649" type="line" smooth="yes"/>
      <point x="520" y="649"/>
      <point x="541" y="590"/>
      <point x="557" y="455" type="curve"/>
      <point x="582" y="455" type="line"/>
    </contour>
  </outline>
</glyph>
<glyph name="Theta" format="2">
  <advance width="777"/>
  <unicode hex="0398"/>
  <outline>
    <contour>
      <point x="721" y="339" type="curve" smooth="yes"/>
      <point x="721" y="543"/>
      <point x="570" y="705"/>
      <point x="388" y="705" type="curve" smooth="yes"/>
      <point x="209" y="705"/>
      <point x="56" y="545"/>
      <point x="56" y="339" type="curve" smooth="yes"/>
      <point x="56" y="134"/>
      <point x="210" y="-22"/>
      <point x="388" y="-22" type="curve" smooth="yes"/>
      <point x="570" y="-22"/>
      <point x="721" y="137"/>
    </contour>
    <contour>
      <point x="389" y="1" type="curve" smooth="yes"/>
      <point x="290" y="1"/>
      <point x="153" y="87"/>
      <point x="153" y="339" type="curve" smooth="yes"/>
      <point x="153" y="596"/>
      <point x="292" y="683"/>
      <point x="388" y="683" type="curve" smooth="yes"/>
      <point x="489" y="683"/>
      <point x="624" y="592"/>
      <point x="624" y="339" type="curve" smooth="yes"/>
      <point x="624" y="84"/>
      <point x="483" y="1"/>
    </contour>
    <contour>
      <point x="567" y="414" type="line"/>
      <point x="542" y="414" type="line"/>
      <point x="542" y="380" type="line"/>
      <point x="235" y="380" type="line"/>
      <point x="235" y="414" type="line"/>
      <point x="210" y="414" type="line"/>
      <point x="210" y="270" type="line"/>
      <point x="235" y="270" type="line"/>
      <point x="235" y="304" type="line"/>
      <point x="542" y="304" type="line"/>
      <point x="542" y="270" type="line"/>
      <point x="567" y="270" type="line"/>
    </contour>
  </outline>
</glyph>
<glyph name="Lambda" format="2">
  <advance width="694"/>
  <unicode hex="039B"/>
  <outline>
    <contour>
      <point x="370" y="695" type="line" smooth="yes"/>
      <point x="364" y="714"/>
      <point x="358" y="716"/>
      <point x="347" y="716" type="curve" smooth="yes"/>
      <point x="331" y="716"/>
      <point x="329" y="712"/>
      <point x="324" y="695" type="curve" smooth="yes"/>
      <point x="132" y="100" type="line" smooth="yes"/>
      <point x="122" y="70"/>
      <point x="102" y="31"/>
      <point x="32" y="31" type="curve"/>
      <point x="32" y="0" type="line"/>
      <point x="65" y="2"/>
      <point x="116" y="3"/>
      <point x="125" y="3" type="curve" smooth="yes"/>
      <point x="154" y="3"/>
      <point x="207" y="1"/>
      <point x="238" y="0" type="curve"/>
      <point x="238" y="31" type="line"/>
      <point x="184" y="32"/>
      <point x="161" y="59"/>
      <point x="161" y="83" type="curve" smooth="yes"/>
      <point x="161" y="88"/>
      <point x="161" y="91"/>
      <point x="166" y="105" type="curve" smooth="yes"/>
      <point x="316" y="571" type="line"/>
      <point x="474" y="79" type="line" smooth="yes"/>
      <point x="479" y="65"/>
      <point x="479" y="63"/>
      <point x="479" y="61" type="curve" smooth="yes"/>
      <point x="479" y="31"/>
      <point x="420" y="31"/>
      <point x="394" y="31" type="curve"/>
      <point x="394" y="0" type="line"/>
      <point x="429" y="3"/>
      <point x="500" y="3"/>
      <point x="538" y="3" type="curve" smooth="yes"/>
      <point x="577" y="3"/>
      <point x="622" y="1"/>
      <point x="661" y="0" type="curve"/>
      <point x="661" y="31" type="line"/>
      <point x="585" y="31"/>
      <point x="582" y="37"/>
      <point x="570" y="74" type="curve" smooth="yes"/>
    </contour>
  </outline>
</glyph>
<glyph name="Xi" format="2">
  <advance width="666"/>
  <unicode hex="039E"/>
  <outline>
    <contour>
      <point x="50" y="0" type="line"/>
      <point x="616" y="0" type="line"/>
      <point x="624" y="167" type="line"/>
      <point x="599" y="167" type="line"/>
      <point x="596" y="121"/>
      <point x="595" y="95"/>
      <point x="587" y="81" type="curve" smooth="yes"/>
      <point x="581" y="70"/>
      <point x="529" y="70"/>
      <point x="507" y="70" type="curve" smooth="yes"/>
      <point x="159" y="70" type="line" smooth="yes"/>
      <point x="141" y="70"/>
      <point x="86" y="70"/>
      <point x="79" y="80" type="curve"/>
      <point x="71" y="93"/>
      <point x="69" y="123"/>
      <point x="67" y="167" type="curve"/>
      <point x="42" y="167" type="line"/>
    </contour>
    <contour>
      <point x="139" y="266" type="line"/>
      <point x="164" y="266" type="line"/>
      <point x="164" y="317" type="line"/>
      <point x="502" y="317" type="line"/>
      <point x="502" y="266" type="line"/>
      <point x="527" y="266" type="line"/>
      <point x="527" y="438" type="line"/>
      <point x="502" y="438" type="line"/>
      <point x="502" y="387" type="line"/>
      <point x="164" y="387" type="line"/>
      <point x="164" y="438" type="line"/>
      <point x="139" y="438" type="line"/>
    </contour>
    <contour>
      <point x="47" y="521" type="line"/>
      <point x="72" y="521" type="line"/>
      <point x="74" y="562"/>
      <point x="77" y="588"/>
      <point x="84" y="599" type="curve"/>
      <point x="90" y="607"/>
      <point x="151" y="607"/>
      <point x="160" y="607" type="curve" smooth="yes"/>
      <point x="506" y="607" type="line" smooth="yes"/>
      <point x="517" y="607"/>
      <point x="576" y="607"/>
      <point x="582" y="599" type="curve"/>
      <point x="589" y="588"/>
      <point x="592" y="562"/>
      <point x="594" y="521" type="curve"/>
      <point x="619" y="521" type="line"/>
      <point x="611" y="677" type="line"/>
      <point x="55" y="677" type="line"/>
    </contour>
  </outline>
</glyph>
<glyph name="Pi" format="2">
  <advance width="750"/>
  <unicode hex="03A0"/>
  <outline>
    <contour>
      <point x="613" y="602" type="line" smooth="yes"/>
      <point x="613" y="638"/>
      <point x="615" y="649"/>
      <point x="692" y="649" type="curve" smooth="yes"/>
      <point x="716" y="649" type="line"/>
      <point x="716" y="680" type="line"/>
      <point x="33" y="680" type="line"/>
      <point x="33" y="649" type="line"/>
      <point x="57" y="649" type="line" smooth="yes"/>
      <point x="134" y="649"/>
      <point x="136" y="638"/>
      <point x="136" y="602" type="curve" smooth="yes"/>
      <point x="136" y="78" type="line" smooth="yes"/>
      <point x="136" y="42"/>
      <point x="134" y="31"/>
      <point x="57" y="31" type="curve" smooth="yes"/>
      <point x="33" y="31" type="line"/>
      <point x="33" y="0" type="line"/>
      <point x="68" y="3"/>
      <point x="142" y="3"/>
      <point x="180" y="3" type="curve" smooth="yes"/>
      <point x="218" y="3"/>
      <point x="293" y="3"/>
      <point x="328" y="0" type="curve"/>
      <point x="328" y="31" type="line"/>
      <point x="304" y="31" type="line" smooth="yes"/>
      <point x="227" y="31"/>
      <point x="225" y="42"/>
      <point x="225" y="78" type="curve" smooth="yes"/>
      <point x="225" y="649" type="line"/>
      <point x="524" y="649" type="line"/>
      <point x="524" y="78" type="line" smooth="yes"/>
      <point x="524" y="42"/>
      <point x="522" y="31"/>
      <point x="445" y="31" type="curve" smooth="yes"/>
      <point x="421" y="31" type="line"/>
      <point x="421" y="0" type="line"/>
      <point x="456" y="3"/>
      <point x="530" y="3"/>
      <point x="568" y="3" type="curve" smooth="yes"/>
      <point x="606" y="3"/>
      <point x="681" y="3"/>
      <point x="716" y="0" type="curve"/>
      <point x="716" y="31" type="line"/>
      <point x="692" y="31" type="line" smooth="yes"/>
      <point x="615" y="31"/>
      <point x="613" y="42"/>
      <point x="613" y="78" type="curve" smooth="yes"/>
    </contour>
  </outline>
</glyph>
<glyph name="Sigma" format="2">
  <advance width="722"/>
  <unicode hex="03A3"/>
  <outline>
    <contour>
      <point x="372" y="326" type="line" smooth="yes"/>
      <point x="381" y="336"/>
      <point x="381" y="340"/>
      <point x="381" y="342" type="curve" smooth="yes"/>
      <point x="381" y="347"/>
      <point x="377" y="352"/>
      <point x="374" y="356" type="curve" smooth="yes"/>
      <point x="169" y="652" type="line"/>
      <point x="400" y="652" type="line" smooth="yes"/>
      <point x="569" y="652"/>
      <point x="619" y="616"/>
      <point x="640" y="458" type="curve"/>
      <point x="665" y="458" type="line"/>
      <point x="637" y="683" type="line"/>
      <point x="82" y="683" type="line" smooth="yes"/>
      <point x="58" y="683"/>
      <point x="56" y="683"/>
      <point x="56" y="660" type="curve"/>
      <point x="305" y="298" type="line"/>
      <point x="67" y="27" type="line" smooth="yes"/>
      <point x="57" y="16"/>
      <point x="57" y="14"/>
      <point x="57" y="11" type="curve" smooth="yes"/>
      <point x="57" y="0"/>
      <point x="67" y="0"/>
      <point x="82" y="0" type="curve" smooth="yes"/>
      <point x="637" y="0" type="line"/>
      <point x="665" y="236" type="line"/>
      <point x="640" y="236" type="line"/>
      <point x="622" y="69"/>
      <point x="554" y="42"/>
      <point x="397" y="42" type="curve" smooth="yes"/>
      <point x="121" y="42" type="line"/>
    </contour>
  </outline>
</glyph>
<glyph name="Upsilon" format="2">
  <advance width="777"/>
  <unicode hex="03A5"/>
  <outline>
    <contour>
      <point x="216" y="0" type="line"/>
      <point x="252" y="3"/>
      <point x="347" y="3"/>
      <point x="388" y="3" type="curve" smooth="yes"/>
      <point x="429" y="3"/>
      <point x="525" y="3"/>
      <point x="561" y="0" type="curve"/>
      <point x="561" y="31" type="line"/>
      <point x="550" y="31"/>
      <point x="539" y="31"/>
      <point x="528" y="31" type="curve" smooth="yes"/>
      <point x="433" y="31"/>
      <point x="433" y="44"/>
      <point x="433" y="79" type="curve" smooth="yes"/>
      <point x="433" y="351" type="line" smooth="yes"/>
      <point x="433" y="446"/>
      <point x="459" y="628"/>
      <point x="591" y="628" type="curve" smooth="yes"/>
      <point x="622" y="628"/>
      <point x="683" y="613"/>
      <point x="690" y="551" type="curve" smooth="yes"/>
      <point x="691" y="542"/>
      <point x="692" y="535"/>
      <point x="705" y="535" type="curve" smooth="yes"/>
      <point x="721" y="535"/>
      <point x="721" y="544"/>
      <point x="721" y="552" type="curve" smooth="yes"/>
      <point x="721" y="612"/>
      <point x="681" y="705"/>
      <point x="590" y="705" type="curve" smooth="yes"/>
      <point x="486" y="705"/>
      <point x="413" y="614"/>
      <point x="389" y="462" type="curve"/>
      <point x="388" y="462" type="line"/>
      <point x="381" y="505"/>
      <point x="346" y="705"/>
      <point x="187" y="705" type="curve" smooth="yes"/>
      <point x="96" y="705"/>
      <point x="56" y="612"/>
      <point x="56" y="552" type="curve" smooth="yes"/>
      <point x="56" y="544"/>
      <point x="56" y="535"/>
      <point x="72" y="535" type="curve" smooth="yes"/>
      <point x="86" y="535"/>
      <point x="86" y="543"/>
      <point x="87" y="548" type="curve"/>
      <point x="95" y="628"/>
      <point x="181" y="628"/>
      <point x="186" y="628" type="curve" smooth="yes"/>
      <point x="324" y="628"/>
      <point x="344" y="431"/>
      <point x="344" y="351" type="curve" smooth="yes"/>
      <point x="344" y="79" type="line" smooth="yes"/>
      <point x="344" y="45"/>
      <point x="344" y="31"/>
      <point x="249" y="31" type="curve" smooth="yes"/>
      <point x="238" y="31"/>
      <point x="227" y="31"/>
      <point x="216" y="31" type="curve"/>
    </contour>
  </outline>
</glyph>
<glyph name="Phi" format="2">
  <advance width="722"/>
  <unicode hex="03A6"/>
  <outline>
    <contour>
      <point x="188" y="0" type="line"/>
      <point x="224" y="3"/>
      <point x="316" y="3"/>
      <point x="357" y="3" type="curve" smooth="yes"/>
      <point x="398" y="3"/>
      <point x="491" y="3"/>
      <point x="527" y="0" type="curve"/>
      <point x="527" y="31" type="line"/>
      <point x="494" y="31" type="line" smooth="yes"/>
      <point x="399" y="31"/>
      <point x="399" y="44"/>
      <point x="399" y="79" type="curve" smooth="yes"/>
      <point x="399" y="135" type="line"/>
      <point x="554" y="147"/>
      <point x="665" y="240"/>
      <point x="665" y="341" type="curve" smooth="yes"/>
      <point x="665" y="445"/>
      <point x="551" y="536"/>
      <point x="399" y="548" type="curve"/>
      <point x="399" y="604" type="line" smooth="yes"/>
      <point x="399" y="638"/>
      <point x="399" y="652"/>
      <point x="494" y="652" type="curve" smooth="yes"/>
      <point x="527" y="652" type="line"/>
      <point x="527" y="683" type="line"/>
      <point x="491" y="680"/>
      <point x="399" y="680"/>
      <point x="358" y="680" type="curve" smooth="yes"/>
      <point x="317" y="680"/>
      <point x="224" y="680"/>
      <point x="188" y="683" type="curve"/>
      <point x="188" y="652" type="line"/>
      <point x="221" y="652" type="line" smooth="yes"/>
      <point x="316" y="652"/>
      <point x="316" y="639"/>
      <point x="316" y="604" type="curve" smooth="yes"/>
      <point x="316" y="548" type="line"/>
      <point x="163" y="533"/>
      <point x="56" y="441"/>
      <point x="56" y="342" type="curve" smooth="yes"/>
      <point x="56" y="239"/>
      <point x="167" y="150"/>
      <point x="316" y="135" type="curve"/>
      <point x="316" y="79" type="line" smooth="yes"/>
      <point x="316" y="45"/>
      <point x="316" y="31"/>
      <point x="221" y="31" type="curve" smooth="yes"/>
      <point x="188" y="31" type="line"/>
    </contour>
    <contour>
      <point x="316" y="158" type="line"/>
      <point x="174" y="177"/>
      <point x="156" y="279"/>
      <point x="156" y="341" type="curve" smooth="yes"/>
      <point x="156" y="393"/>
      <point x="166" y="505"/>
      <point x="316" y="525" type="curve"/>
    </contour>
    <contour>
      <point x="399" y="157" type="curve"/>
      <point x="399" y="526" type="line"/>
      <point x="537" y="510"/>
      <point x="565" y="418"/>
      <point x="565" y="342" type="curve" smooth="yes"/>
      <point x="565" y="282"/>
      <point x="550" y="175"/>
    </contour>
  </outline>
</glyph>
<glyph name="Psi" format="2">
  <advance width="777"/>
  <unicode hex="03A8"/>
  <outline>
    <contour>
      <point x="427" y="604" type="line" smooth="yes"/>
      <point x="427" y="638"/>
      <point x="427" y="652"/>
      <point x="522" y="652" type="curve" smooth="yes"/>
      <point x="555" y="652" type="line"/>
      <point x="555" y="683" type="line"/>
      <point x="519" y="680"/>
      <point x="427" y="680"/>
      <point x="386" y="680" type="curve" smooth="yes"/>
      <point x="345" y="680"/>
      <point x="252" y="680"/>
      <point x="216" y="683" type="curve"/>
      <point x="216" y="652" type="line"/>
      <point x="249" y="652" type="line" smooth="yes"/>
      <point x="344" y="652"/>
      <point x="344" y="639"/>
      <point x="344" y="604" type="curve" smooth="yes"/>
      <point x="344" y="160" type="line"/>
      <point x="213" y="195"/>
      <point x="208" y="349"/>
      <point x="208" y="414" type="curve" smooth="yes"/>
      <point x="207" y="535"/>
      <point x="163" y="554"/>
      <point x="119" y="554" type="curve" smooth="yes"/>
      <point x="82" y="554" type="line" smooth="yes"/>
      <point x="67" y="554"/>
      <point x="57" y="554"/>
      <point x="57" y="543" type="curve" smooth="yes"/>
      <point x="57" y="538"/>
      <point x="60" y="533"/>
      <point x="66" y="532" type="curve" smooth="yes"/>
      <point x="99" y="528"/>
      <point x="124" y="514"/>
      <point x="125" y="396" type="curve" smooth="yes"/>
      <point x="125" y="373"/>
      <point x="128" y="294"/>
      <point x="176" y="227" type="curve" smooth="yes"/>
      <point x="215" y="173"/>
      <point x="276" y="144"/>
      <point x="344" y="135" type="curve"/>
      <point x="344" y="79" type="line" smooth="yes"/>
      <point x="344" y="45"/>
      <point x="344" y="31"/>
      <point x="249" y="31" type="curve" smooth="yes"/>
      <point x="216" y="31" type="line"/>
      <point x="216" y="0" type="line"/>
      <point x="252" y="3"/>
      <point x="344" y="3"/>
      <point x="385" y="3" type="curve" smooth="yes"/>
      <point x="426" y="3"/>
      <point x="519" y="3"/>
      <point x="555" y="0" type="curve"/>
      <point x="555" y="31" type="line"/>
      <point x="522" y="31" type="line" smooth="yes"/>
      <point x="427" y="31"/>
      <point x="427" y="44"/>
      <point x="427" y="79" type="curve" smooth="yes"/>
      <point x="427" y="135" type="line"/>
      <point x="499" y="144"/>
      <point x="560" y="174"/>
      <point x="599" y="226" type="curve" smooth="yes"/>
      <point x="651" y="297"/>
      <point x="652" y="376"/>
      <point x="652" y="420" type="curve" smooth="yes"/>
      <point x="652" y="436"/>
      <point x="653" y="525"/>
      <point x="707" y="532" type="curve" smooth="yes"/>
      <point x="713" y="533"/>
      <point x="720" y="534"/>
      <point x="720" y="543" type="curve" smooth="yes"/>
      <point x="720" y="554"/>
      <point x="712" y="554"/>
      <point x="696" y="554" type="curve" smooth="yes"/>
      <point x="658" y="554" type="line" smooth="yes"/>
      <point x="619" y="554"/>
      <point x="570" y="547"/>
      <point x="569" y="402" type="curve" smooth="yes"/>
      <point x="568" y="292"/>
      <point x="535" y="186"/>
      <point x="427" y="160" type="curve"/>
    </contour>
  </outline>
</glyph>
<glyph name="emdash" format="2">
  <advance width="1000"/>
  <unicode hex="2014"/>
  <outline>
    <contour>
      <point x="999" y="255" type="line"/>
      <point x="999" y="277" type="line"/>
      <point x="0" y="277" type="line"/>
      <point x="0" y="255" type="line"/>
    </contour>
  </outline>
</glyph>
<glyph name="quoteright" format="2">
  <advance width="277"/>
  <unicode hex="2019"/>
  <outline>
    <contour>
      <point x="206" y="589" type="curve" smooth="yes"/>
      <point x="206" y="649"/>
      <point x="182" y="694"/>
      <point x="139" y="694" type="curve" smooth="yes"/>
      <point x="104" y="694"/>
      <point x="86" y="667"/>
      <point x="86" y="641" type="curve" smooth="yes"/>
      <point x="86" y="615"/>
      <point x="103" y="588"/>
      <point x="139" y="588" type="curve" smooth="yes"/>
      <point x="159" y="588"/>
      <point x="173" y="598"/>
      <point x="179" y="604" type="curve"/>
      <point x="180" y="606"/>
      <point x="181" y="607"/>
      <point x="182" y="607" type="curve" smooth="yes"/>
      <point x="184" y="607"/>
      <point x="184" y="593"/>
      <point x="184" y="589" type="curve" smooth="yes"/>
      <point x="184" y="557"/>
      <point x="177" y="485"/>
      <point x="114" y="423" type="curve" smooth="yes"/>
      <point x="102" y="411"/>
      <point x="102" y="409"/>
      <point x="102" y="406" type="curve" smooth="yes"/>
      <point x="102" y="399"/>
      <point x="107" y="395"/>
      <point x="112" y="395" type="curve" smooth="yes"/>
      <point x="123" y="395"/>
      <point x="206" y="471"/>
    </contour>
  </outline>
</glyph>
<glyph name="quotedblleft" format="2">
  <advance width="500"/>
  <unicode hex="201C"/>
  <outline>
    <contour>
      <point x="272" y="447" type="curve" smooth="yes"/>
      <point x="272" y="473"/>
      <point x="255" y="500"/>
      <point x="219" y="500" type="curve" smooth="yes"/>
      <point x="199" y="500"/>
      <point x="185" y="490"/>
      <point x="179" y="484" type="curve"/>
      <point x="178" y="482"/>
      <point x="177" y="481"/>
      <point x="176" y="481" type="curve" smooth="yes"/>
      <point x="174" y="481"/>
      <point x="174" y="495"/>
      <point x="174" y="499" type="curve" smooth="yes"/>
      <point x="174" y="531"/>
      <point x="181" y="603"/>
      <point x="244" y="665" type="curve" smooth="yes"/>
      <point x="256" y="677"/>
      <point x="256" y="679"/>
      <point x="256" y="682" type="curve" smooth="yes"/>
      <point x="256" y="689"/>
      <point x="251" y="693"/>
      <point x="246" y="693" type="curve" smooth="yes"/>
      <point x="235" y="693"/>
      <point x="152" y="617"/>
      <point x="152" y="499" type="curve" smooth="yes"/>
      <point x="152" y="439"/>
      <point x="176" y="394"/>
      <point x="219" y="394" type="curve" smooth="yes"/>
      <point x="254" y="394"/>
      <point x="272" y="421"/>
    </contour>
    <contour>
      <point x="466" y="447" type="curve" smooth="yes"/>
      <point x="466" y="473"/>
      <point x="449" y="500"/>
      <point x="413" y="500" type="curve" smooth="yes"/>
      <point x="393" y="500"/>
      <point x="379" y="490"/>
      <point x="373" y="484" type="curve"/>
      <point x="372" y="482"/>
      <point x="371" y="481"/>
      <point x="370" y="481" type="curve" smooth="yes"/>
      <point x="368" y="481"/>
      <point x="368" y="495"/>
      <point x="368" y="499" type="curve" smooth="yes"/>
      <point x="368" y="531"/>
      <point x="375" y="603"/>
      <point x="438" y="665" type="curve" smooth="yes"/>
      <point x="450" y="677"/>
      <point x="450" y="679"/>
      <point x="450" y="682" type="curve" smooth="yes"/>
      <point x="450" y="689"/>
      <point x="445" y="693"/>
      <point x="440" y="693" type="curve" smooth="yes"/>
      <point x="429" y="693"/>
      <point x="346" y="617"/>
      <point x="346" y="499" type="curve" smooth="yes"/>
      <point x="346" y="439"/>
      <point x="370" y="394"/>
      <point x="413" y="394" type="curve" smooth="yes"/>
      <point x="448" y="394"/>
      <point x="466" y="421"/>
    </contour>
  </outline>
</glyph>
<glyph name="quotedblright" format="2">
  <advance width="500"/>
  <unicode hex="201D"/>
  <outline>
    <contour>
      <point x="153" y="589" type="curve" smooth="yes"/>
      <point x="153" y="649"/>
      <point x="129" y="694"/>
      <point x="86" y="694" type="curve" smooth="yes"/>
      <point x="51" y="694"/>
      <point x="33" y="667"/>
      <point x="33" y="641" type="curve" smooth="yes"/>
      <point x="33" y="615"/>
      <point x="50" y="588"/>
      <point x="86" y="588" type="curve" smooth="yes"/>
      <point x="106" y="588"/>
      <point x="120" y="598"/>
      <point x="126" y="604" type="curve"/>
      <point x="127" y="606"/>
      <point x="128" y="607"/>
      <point x="129" y="607" type="curve" smooth="yes"/>
      <point x="131" y="607"/>
      <point x="131" y="593"/>
      <point x="131" y="589" type="curve" smooth="yes"/>
      <point x="131" y="557"/>
      <point x="124" y="485"/>
      <point x="61" y="423" type="curve" smooth="yes"/>
      <point x="49" y="411"/>
      <point x="49" y="409"/>
      <point x="49" y="406" type="curve" smooth="yes"/>
      <point x="49" y="399"/>
      <point x="54" y="395"/>
      <point x="59" y="395" type="curve" smooth="yes"/>
      <point x="70" y="395"/>
      <point x="153" y="471"/>
    </contour>
    <contour>
      <point x="347" y="589" type="curve" smooth="yes"/>
      <point x="347" y="649"/>
      <point x="323" y="694"/>
      <point x="280" y="694" type="curve" smooth="yes"/>
      <point x="245" y="694"/>
      <point x="227" y="667"/>
      <point x="227" y="641" type="curve" smooth="yes"/>
      <point x="227" y="615"/>
      <point x="244" y="588"/>
      <point x="280" y="588" type="curve" smooth="yes"/>
      <point x="300" y="588"/>
      <point x="314" y="598"/>
      <point x="320" y="604" type="curve"/>
      <point x="321" y="606"/>
      <point x="322" y="607"/>
      <point x="323" y="607" type="curve" smooth="yes"/>
      <point x="325" y="607"/>
      <point x="325" y="593"/>
      <point x="325" y="589" type="curve" smooth="yes"/>
      <point x="325" y="557"/>
      <point x="318" y="485"/>
      <point x="255" y="423" type="curve" smooth="yes"/>
      <point x="243" y="411"/>
      <point x="243" y="409"/>
      <point x="243" y="406" type="curve" smooth="yes"/>
      <point x="243" y="399"/>
      <point x="248" y="395"/>
      <point x="253" y="395" type="curve" smooth="yes"/>
      <point x="264" y="395"/>
      <point x="347" y="471"/>
    </contour>
  </outline>
</glyph>
<glyph name="Omega" format="2">
  <advance width="722"/>
  <unicode hex="2126"/>
  <outline>
    <contour>
      <point x="677" y="162" type="line"/>
      <point x="652" y="162" type="line"/>
      <point x="647" y="136"/>
      <point x="643" y="113"/>
      <point x="634" y="89" type="curve"/>
      <point x="629" y="73"/>
      <point x="626" y="65"/>
      <point x="568" y="65" type="curve" smooth="yes"/>
      <point x="488" y="65" type="line"/>
      <point x="501" y="121"/>
      <point x="532" y="169"/>
      <point x="577" y="235" type="curve" smooth="yes"/>
      <point x="624" y="306"/>
      <point x="665" y="375"/>
      <point x="665" y="454" type="curve" smooth="yes"/>
      <point x="665" y="593"/>
      <point x="530" y="705"/>
      <point x="361" y="705" type="curve" smooth="yes"/>
      <point x="189" y="705"/>
      <point x="56" y="591"/>
      <point x="56" y="454" type="curve" smooth="yes"/>
      <point x="56" y="375"/>
      <point x="97" y="306"/>
      <point x="144" y="235" type="curve" smooth="yes"/>
      <point x="188" y="169"/>
      <point x="220" y="121"/>
      <point x="233" y="65" type="curve"/>
      <point x="153" y="65" type="line" smooth="yes"/>
      <point x="95" y="65"/>
      <point x="92" y="73"/>
      <point x="87" y="88" type="curve" smooth="yes"/>
      <point x="79" y="111"/>
      <point x="74" y="137"/>
      <point x="69" y="162" type="curve"/>
      <point x="44" y="162" type="line"/>
      <point x="77" y="0" type="line"/>
      <point x="237" y="0" type="line" smooth="yes"/>
      <point x="259" y="0"/>
      <point x="262" y="0"/>
      <point x="262" y="21" type="curve" smooth="yes"/>
      <point x="262" y="91"/>
      <point x="231" y="179"/>
      <point x="208" y="243" type="curve" smooth="yes"/>
      <point x="187" y="301"/>
      <point x="159" y="380"/>
      <point x="159" y="455" type="curve" smooth="yes"/>
      <point x="159" y="615"/>
      <point x="269" y="683"/>
      <point x="360" y="683" type="curve" smooth="yes"/>
      <point x="456" y="683"/>
      <point x="562" y="611"/>
      <point x="562" y="455" type="curve" smooth="yes"/>
      <point x="562" y="380"/>
      <point x="535" y="304"/>
      <point x="506" y="222" type="curve" smooth="yes"/>
      <point x="491" y="180"/>
      <point x="459" y="90"/>
      <point x="459" y="21" type="curve" smooth="yes"/>
      <point x="459" y="0"/>
      <point x="462" y="0"/>
      <point x="485" y="0" type="curve" smooth="yes"/>
      <point x="644" y="0" type="line"/>
    </contour>
  </outline>
</glyph>
<glyph name="Delta" format="2">
  <advance width="833"/>
  <unicode hex="2206"/>
  <outline>
    <contour>
      <point x="442" y="698" type="line" smooth="yes"/>
      <point x="435" y="711"/>
      <point x="433" y="716"/>
      <point x="416" y="716" type="curve" smooth="yes"/>
      <point x="399" y="716"/>
      <point x="397" y="711"/>
      <point x="390" y="698" type="curve" smooth="yes"/>
      <point x="52" y="20" type="line" smooth="yes"/>
      <point x="47" y="11"/>
      <point x="47" y="9"/>
      <point x="47" y="8" type="curve" smooth="yes"/>
      <point x="47" y="0"/>
      <point x="53" y="0"/>
      <point x="69" y="0" type="curve" smooth="yes"/>
      <point x="763" y="0" type="line" smooth="yes"/>
      <point x="779" y="0"/>
      <point x="785" y="0"/>
      <point x="785" y="8" type="curve" smooth="yes"/>
      <point x="785" y="9"/>
      <point x="785" y="11"/>
      <point x="780" y="20" type="curve" smooth="yes"/>
    </contour>
    <contour>
      <point x="384" y="616" type="line"/>
      <point x="653" y="76" type="line"/>
      <point x="114" y="76" type="line"/>
    </contour>
  </outline>
</glyph>
<glyph name="dotlessj" format="2">
  <advance width="305"/>
  <outline>
    <contour>
      <point x="144" y="344" type="curve" smooth="yes"/>
      <point x="144" y="-52" type="line" smooth="yes"/>
      <point x="144" y="-97"/>
      <point x="135" y="-183"/>
      <point x="71" y="-183" type="curve" smooth="yes"/>
      <point x="66" y="-183"/>
      <point x="43" y="-183"/>
      <point x="17" y="-170" type="curve"/>
      <point x="32" y="-166"/>
      <point x="52" y="-152"/>
      <point x="52" y="-125" type="curve" smooth="yes"/>
      <point x="52" y="-99"/>
      <point x="34" y="-79"/>
      <point x="6" y="-79" type="curve" smooth="yes"/>
      <point x="-22" y="-79"/>
      <point x="-40" y="-99"/>
      <point x="-40" y="-125" type="curve" smooth="yes"/>
      <point x="-40" y="-177"/>
      <point x="16" y="-205"/>
      <point x="73" y="-205" type="curve" smooth="yes"/>
      <point x="148" y="-205"/>
      <point x="210" y="-141"/>
      <point x="210" y="-50" type="curve" smooth="yes"/>
      <point x="210" y="442" type="line"/>
      <point x="58" y="431" type="line"/>
      <point x="58" y="400" type="line"/>
      <point x="135" y="400"/>
      <point x="144" y="393"/>
    </contour>
  </outline>
</glyph>
<glyph name="ff" format="2">
  <advance width="583"/>
  <outline>
    <contour>
      <point x="448" y="400" type="line"/>
      <point x="563" y="400" type="line"/>
      <point x="563" y="431" type="line"/>
      <point x="445" y="431" type="line"/>
      <point x="445" y="547" type="line" smooth="yes"/>
      <point x="445" y="636"/>
      <point x="493" y="683"/>
      <point x="538" y="683" type="curve" smooth="yes"/>
      <point x="541" y="683"/>
      <point x="556" y="683"/>
      <point x="571" y="676" type="curve"/>
      <point x="559" y="672"/>
      <point x="541" y="659"/>
      <point x="541" y="634" type="curve" smooth="yes"/>
      <point x="541" y="611"/>
      <point x="557" y="591"/>
      <point x="584" y="591" type="curve" smooth="yes"/>
      <point x="613" y="591"/>
      <point x="628" y="611"/>
      <point x="628" y="635" type="curve" smooth="yes"/>
      <point x="628" y="671"/>
      <point x="593" y="705"/>
      <point x="537" y="705" type="curve" smooth="yes"/>
      <point x="478" y="705"/>
      <point x="434" y="667"/>
      <point x="429" y="663" type="curve"/>
      <point x="400" y="700"/>
      <point x="344" y="705"/>
      <point x="317" y="705" type="curve" smooth="yes"/>
      <point x="222" y="705"/>
      <point x="106" y="653"/>
      <point x="106" y="545" type="curve" smooth="yes"/>
      <point x="106" y="431" type="line"/>
      <point x="27" y="431" type="line"/>
      <point x="27" y="400" type="line"/>
      <point x="106" y="400" type="line"/>
      <point x="106" y="76" type="line" smooth="yes"/>
      <point x="106" y="31"/>
      <point x="95" y="31"/>
      <point x="28" y="31" type="curve"/>
      <point x="28" y="0" type="line"/>
      <point x="61" y="1"/>
      <point x="114" y="3"/>
      <point x="139" y="3" type="curve" smooth="yes"/>
      <point x="164" y="3"/>
      <point x="213" y="1"/>
      <point x="250" y="0" type="curve"/>
      <point x="250" y="31" type="line"/>
      <point x="183" y="31"/>
      <point x="172" y="31"/>
      <point x="172" y="76" type="curve" smooth="yes"/>
      <point x="172" y="400" type="line"/>
      <point x="382" y="400" type="line"/>
      <point x="382" y="76" type="line" smooth="yes"/>
      <point x="382" y="31"/>
      <point x="371" y="31"/>
      <point x="304" y="31" type="curve"/>
      <point x="304" y="0" type="line"/>
      <point x="343" y="1"/>
      <point x="390" y="3"/>
      <point x="418" y="3" type="curve" smooth="yes"/>
      <point x="458" y="3"/>
      <point x="505" y="3"/>
      <point x="545" y="0" type="curve"/>
      <point x="545" y="31" type="line"/>
      <point x="524" y="31" type="line" smooth="yes"/>
      <point x="450" y="31"/>
      <point x="448" y="42"/>
      <point x="448" y="78" type="curve" smooth="yes"/>
    </contour>
    <contour>
      <point x="169" y="431" type="line"/>
      <point x="169" y="544" type="line" smooth="yes"/>
      <point x="169" y="641"/>
      <point x="251" y="683"/>
      <point x="316" y="683" type="curve" smooth="yes"/>
      <point x="365" y="683"/>
      <point x="393" y="664"/>
      <point x="394" y="664" type="curve"/>
      <point x="394" y="663" type="line"/>
      <point x="377" y="661"/>
      <point x="357" y="648"/>
      <point x="357" y="620" type="curve" smooth="yes"/>
      <point x="357" y="614"/>
      <point x="358" y="589"/>
      <point x="385" y="580" type="curve"/>
      <point x="382" y="567"/>
      <point x="382" y="558"/>
      <point x="382" y="546" type="curve" smooth="yes"/>
      <point x="382" y="431" type="line"/>
    </contour>
  </outline>
</glyph>
<glyph name="fi" format="2">
  <advance width="555"/>
  <outline>
    <contour>
      <point x="330" y="400" type="line" smooth="yes"/>
      <point x="376" y="400"/>
      <point x="383" y="387"/>
      <point x="383" y="346" type="curve" smooth="yes"/>
      <point x="383" y="76" type="line" smooth="yes"/>
      <point x="383" y="31"/>
      <point x="372" y="31"/>
      <point x="305" y="31" type="curve"/>
      <point x="305" y="0" type="line"/>
      <point x="338" y="1"/>
      <point x="391" y="3"/>
      <point x="416" y="3" type="curve" smooth="yes"/>
      <point x="441" y="3"/>
      <point x="490" y="1"/>
      <point x="527" y="0" type="curve"/>
      <point x="527" y="31" type="line"/>
      <point x="460" y="31"/>
      <point x="449" y="31"/>
      <point x="449" y="76" type="curve" smooth="yes"/>
      <point x="449" y="443" type="line"/>
      <point x="323" y="434" type="line" smooth="yes"/>
      <point x="307" y="433"/>
      <point x="306" y="432"/>
      <point x="305" y="432" type="curve"/>
      <point x="303" y="431"/>
      <point x="301" y="431"/>
      <point x="287" y="431" type="curve" smooth="yes"/>
      <point x="169" y="431" type="line"/>
      <point x="169" y="544" type="line" smooth="yes"/>
      <point x="169" y="643"/>
      <point x="255" y="683"/>
      <point x="317" y="683" type="curve" smooth="yes"/>
      <point x="347" y="683"/>
      <point x="383" y="673"/>
      <point x="403" y="650" type="curve"/>
      <point x="362" y="648"/>
      <point x="356" y="620"/>
      <point x="356" y="604" type="curve" smooth="yes"/>
      <point x="356" y="571"/>
      <point x="382" y="558"/>
      <point x="401" y="558" type="curve" smooth="yes"/>
      <point x="424" y="558"/>
      <point x="447" y="574"/>
      <point x="447" y="604" type="curve" smooth="yes"/>
      <point x="447" y="663"/>
      <point x="392" y="705"/>
      <point x="318" y="705" type="curve" smooth="yes"/>
      <point x="225" y="705"/>
      <point x="106" y="654"/>
      <point x="106" y="545" type="curve" smooth="yes"/>
      <point x="106" y="431" type="line"/>
      <point x="27" y="431" type="line"/>
      <point x="27" y="400" type="line"/>
      <point x="106" y="400" type="line"/>
      <point x="106" y="76" type="line" smooth="yes"/>
      <point x="106" y="31"/>
      <point x="95" y="31"/>
      <point x="28" y="31" type="curve"/>
      <point x="28" y="0" type="line"/>
      <point x="61" y="1"/>
      <point x="114" y="3"/>
      <point x="139" y="3" type="curve" smooth="yes"/>
      <point x="164" y="3"/>
      <point x="213" y="1"/>
      <point x="250" y="0" type="curve"/>
      <point x="250" y="31" type="line"/>
      <point x="183" y="31"/>
      <point x="172" y="31"/>
      <point x="172" y="76" type="curve" smooth="yes"/>
      <point x="172" y="400" type="line"/>
    </contour>
  </outline>
</glyph>
<glyph name="fl" format="2">
  <advance width="555"/>
  <outline>
    <contour>
      <point x="383" y="400" type="line"/>
      <point x="383" y="76" type="line" smooth="yes"/>
      <point x="383" y="31"/>
      <point x="372" y="31"/>
      <point x="305" y="31" type="curve"/>
      <point x="305" y="0" type="line"/>
      <point x="338" y="1"/>
      <point x="391" y="3"/>
      <point x="416" y="3" type="curve" smooth="yes"/>
      <point x="441" y="3"/>
      <point x="490" y="1"/>
      <point x="527" y="0" type="curve"/>
      <point x="527" y="31" type="line"/>
      <point x="460" y="31"/>
      <point x="449" y="31"/>
      <point x="449" y="76" type="curve" smooth="yes"/>
      <point x="449" y="694" type="line"/>
      <point x="413" y="688" type="line"/>
      <point x="409" y="688"/>
      <point x="408" y="689"/>
      <point x="404" y="691" type="curve"/>
      <point x="372" y="705"/>
      <point x="331" y="705"/>
      <point x="320" y="705" type="curve" smooth="yes"/>
      <point x="215" y="705"/>
      <point x="106" y="649"/>
      <point x="106" y="545" type="curve" smooth="yes"/>
      <point x="106" y="431" type="line"/>
      <point x="27" y="431" type="line"/>
      <point x="27" y="400" type="line"/>
      <point x="106" y="400" type="line"/>
      <point x="106" y="76" type="line" smooth="yes"/>
      <point x="106" y="31"/>
      <point x="95" y="31"/>
      <point x="28" y="31" type="curve"/>
      <point x="28" y="0" type="line"/>
      <point x="61" y="1"/>
      <point x="114" y="3"/>
      <point x="139" y="3" type="curve" smooth="yes"/>
      <point x="164" y="3"/>
      <point x="213" y="1"/>
      <point x="250" y="0" type="curve"/>
      <point x="250" y="31" type="line"/>
      <point x="183" y="31"/>
      <point x="172" y="31"/>
      <point x="172" y="76" type="curve" smooth="yes"/>
      <point x="172" y="400" type="line"/>
    </contour>
    <contour>
      <point x="383" y="431" type="line"/>
      <point x="169" y="431" type="line"/>
      <point x="169" y="544" type="line" smooth="yes"/>
      <point x="169" y="637"/>
      <point x="245" y="683"/>
      <point x="319" y="683" type="curve" smooth="yes"/>
      <point x="328" y="683"/>
      <point x="355" y="683"/>
      <point x="383" y="674" type="curve"/>
      <point x="374" y="670"/>
      <point x="358" y="660"/>
      <point x="358" y="634" type="curve" smooth="yes"/>
      <point x="358" y="616"/>
      <point x="366" y="601"/>
      <point x="383" y="595" type="curve"/>
    </contour>
  </outline>
</glyph>
<glyph name="suppress" format="2">
  <advance width="277"/>
  <outline>
    <contour>
      <point x="262" y="363" type="line"/>
      <point x="251" y="392" type="line"/>
      <point x="27" y="310" type="line"/>
      <point x="37" y="280" type="line"/>
    </contour>
  </outline>
</glyph>
